<svg width="8" height="35" viewBox="0 0 8 35" fill="none" xmlns="http://www.w3.org/2000/svg">
<path d="M4.41479 1.3042C4.41479 1.02806 4.19094 0.804199 3.91479 0.804199C3.63865 0.804199 3.41479 1.02806 3.41479 1.3042L4.41479 1.3042ZM3.56124 33.8751C3.7565 34.0704 4.07308 34.0704 4.26835 33.8751L7.45033 30.6932C7.64559 30.4979 7.64559 30.1813 7.45033 29.9861C7.25507 29.7908 6.93848 29.7908 6.74322 29.9861L3.91479 32.8145L1.08637 29.9861C0.891104 29.7908 0.574522 29.7908 0.379259 29.9861C0.183997 30.1813 0.183997 30.4979 0.379259 30.6932L3.56124 33.8751ZM3.41479 1.3042L3.41479 33.5216L4.41479 33.5216L4.41479 1.3042L3.41479 1.3042Z" fill="white"/>
</svg>
