<svg width="33" height="32" viewBox="0 0 33 32" fill="none" xmlns="http://www.w3.org/2000/svg">
<g clip-path="url(#clip0_563_9437)">
<path fill-rule="evenodd" clip-rule="evenodd" d="M21 9.33333C21 8.44933 20.6493 7.60133 20.024 6.976C19.3987 6.35067 18.5507 6 17.6667 6C12.5573 6 1.44267 6 -3.66667 6C-4.55067 6 -5.39867 6.35067 -6.024 6.976C-6.64933 7.60133 -7 8.44933 -7 9.33333V22.6667C-7 23.5507 -6.64933 24.3987 -6.024 25.024C-5.39867 25.6493 -4.55067 26 -3.66667 26H17.6667C18.5507 26 19.3987 25.6493 20.024 25.024C20.6493 24.3987 21 23.5507 21 22.6667V9.33333Z" fill="#585858"/>
<path fill-rule="evenodd" clip-rule="evenodd" d="M-7 11.332H21V12.6654H-7V11.332Z" fill="#5D9CEC"/>
<path fill-rule="evenodd" clip-rule="evenodd" d="M2.99998 17.332H-2.38802C-2.75602 17.332 -3.05469 17.6307 -3.05469 17.9987C-3.05469 18.3667 -2.75602 18.6654 -2.38802 18.6654H2.99998C3.36798 18.6654 3.66665 18.3667 3.66665 17.9987C3.66665 17.6307 3.36798 17.332 2.99998 17.332Z" fill="#E7E7E7"/>
<path fill-rule="evenodd" clip-rule="evenodd" d="M2.99998 20.668H-2.38802C-2.75602 20.668 -3.05469 20.9666 -3.05469 21.3346C-3.05469 21.7026 -2.75602 22.0013 -2.38802 22.0013H2.99998C3.36798 22.0013 3.66665 21.7026 3.66665 21.3346C3.66665 20.9666 3.36798 20.668 2.99998 20.668Z" fill="#E7E7E7"/>
<path fill-rule="evenodd" clip-rule="evenodd" d="M17.0026 20.6667V18C17.0026 16.896 16.1066 16 15.0026 16H12.3359C11.2319 16 10.3359 16.896 10.3359 18V20.6667C10.3359 21.7707 11.2319 22.6667 12.3359 22.6667H15.0026C16.1066 22.6667 17.0026 21.7707 17.0026 20.6667Z" fill="#F6BB42"/>
</g>
<defs>
<clipPath id="clip0_563_9437">
<rect width="32" height="32" fill="white" transform="translate(0.859375)"/>
</clipPath>
</defs>
</svg>
