<svg width="24" height="24" viewBox="0 0 24 24" fill="none" xmlns="http://www.w3.org/2000/svg">
<path d="M12.1368 2.24993C6.65341 2.17587 2.17684 6.65243 2.25091 12.1359C2.32403 17.3948 6.60606 21.6768 11.865 21.7499C17.3493 21.8249 21.825 17.3484 21.75 11.8649C21.6778 6.60509 17.3958 2.32305 12.1368 2.24993ZM18.0628 17.5898C18.0441 17.61 18.0212 17.6258 17.9957 17.6362C17.9703 17.6465 17.9428 17.6511 17.9154 17.6497C17.8879 17.6483 17.8611 17.6408 17.8368 17.6279C17.8126 17.6149 17.7914 17.5968 17.775 17.5748C17.3557 17.0262 16.8422 16.5566 16.2586 16.1877C15.0651 15.4218 13.5529 14.9999 12.0009 14.9999C10.4489 14.9999 8.93669 15.4218 7.74325 16.1877C7.1596 16.5564 6.64614 17.0259 6.22684 17.5743C6.21037 17.5963 6.18926 17.6145 6.16499 17.6274C6.14073 17.6404 6.11392 17.6478 6.08645 17.6493C6.05899 17.6507 6.03154 17.6461 6.00607 17.6357C5.98059 17.6253 5.9577 17.6095 5.93903 17.5893C4.56357 16.1045 3.78442 14.1643 3.75091 12.1406C3.6745 7.57915 7.41747 3.76118 11.9808 3.74993C16.544 3.73868 20.2509 7.44415 20.2509 11.9999C20.2525 14.0725 19.4709 16.0691 18.0628 17.5898Z" fill="#FCD02F"/>
<path d="M11.9995 6.75C11.0751 6.75 10.2393 7.09641 9.64541 7.72594C9.0515 8.35547 8.75479 9.22594 8.82182 10.1602C8.95775 12 10.3832 13.5 11.9995 13.5C13.6157 13.5 15.0384 12 15.1771 10.1606C15.2465 9.23531 14.9521 8.37281 14.3484 7.73156C13.7521 7.09875 12.9178 6.75 11.9995 6.75Z" fill="#FCD02F"/>
</svg>
