<svg width="14" height="14" viewBox="0 0 14 14" fill="none" xmlns="http://www.w3.org/2000/svg">
<g clip-path="url(#clip0_436_13323)">
<path d="M0.409547 10.6917H11.1288C11.2249 10.6917 11.3178 10.6581 11.3915 10.5968C11.4945 10.5105 13.8431 8.49016 13.9863 4.12891H2.47404C2.33138 8.08775 0.168446 9.94852 0.145969 9.96709C0.0141932 10.0784 -0.0342895 10.2603 0.0249945 10.4221C0.0838682 10.5836 0.237301 10.6917 0.409547 10.6917Z" fill="#FCD02F"/>
<path d="M13.5903 1.66776H11.5395V1.25759C11.5395 1.02789 11.359 0.847412 11.1293 0.847412C10.8996 0.847412 10.7191 1.02789 10.7191 1.25759V1.66776H8.6409V1.25759C8.6409 1.02789 8.46042 0.847412 8.23073 0.847412C8.00103 0.847412 7.82055 1.02789 7.82055 1.25759V1.66776H5.76968V1.25759C5.76968 1.02789 5.5892 0.847412 5.3595 0.847412C5.12981 0.847412 4.94933 1.02789 4.94933 1.25759V1.66776H2.89846C2.66876 1.66776 2.48828 1.84824 2.48828 2.07794V3.30846H14.0005V2.07794C14.0005 1.84824 13.82 1.66776 13.5903 1.66776Z" fill="#FCD02F"/>
<path d="M11.9188 11.2258C11.6961 11.4112 11.4165 11.5122 11.1293 11.5122H2.48828V12.7427C2.48828 12.9694 2.67174 13.1529 2.89846 13.1529H13.5903C13.8171 13.1529 14.0005 12.9694 14.0005 12.7427V8.14478C13.2097 10.0849 12.1062 11.069 11.9188 11.2258Z" fill="#FCD02F"/>
</g>
<defs>
<clipPath id="clip0_436_13323">
<rect width="14" height="14" fill="white"/>
</clipPath>
</defs>
</svg>
