<svg width="14" height="14" viewBox="0 0 14 14" fill="none" xmlns="http://www.w3.org/2000/svg">
<path d="M13.3007 0.934162C12.9107 0.543757 12.2807 0.543757 11.8907 0.934162L7.0007 5.81924L2.1107 0.924152C1.7207 0.533746 1.0907 0.533746 0.700703 0.924152C0.310703 1.31456 0.310703 1.94521 0.700703 2.33562L5.5907 7.2307L0.700703 12.1258C0.310703 12.5162 0.310703 13.1468 0.700703 13.5372C1.0907 13.9277 1.7207 13.9277 2.1107 13.5372L7.0007 8.64217L11.8907 13.5372C12.2807 13.9277 12.9107 13.9277 13.3007 13.5372C13.6907 13.1468 13.6907 12.5162 13.3007 12.1258L8.4107 7.2307L13.3007 2.33562C13.6807 1.95522 13.6807 1.31456 13.3007 0.934162Z" fill="white"/>
</svg>
