<svg width="18" height="18" viewBox="0 0 18 18" fill="none" xmlns="http://www.w3.org/2000/svg">
<path fill-rule="evenodd" clip-rule="evenodd" d="M14.2255 0.84508C14.5819 1.17538 14.815 1.86478 14.8609 2.28058C15.3919 2.60998 16.0201 3.27418 16.075 4.52518C17.0227 5.18308 17.7427 6.39988 16.8436 8.17918C17.3656 8.66518 17.9479 10.1484 17.1991 11.3436C16.327 12.7404 14.4316 12.8376 12.5425 12.5883C13.0465 13.9968 13.2355 15.2964 12.4381 16.6275C11.6452 17.8083 10.5508 18 10.1764 18C9.15222 18 8.45022 17.1189 8.16582 15.9453C8.06232 15.6177 7.94442 14.8437 7.89852 14.6403C7.66002 13.3443 6.85812 12.3075 5.49552 11.5326C4.88931 11.1844 4.24908 10.8991 3.58482 10.6812H1.47882C1.00992 10.6812 0.449219 10.2069 0.449219 9.63268V2.76028C0.515819 2.11048 0.876719 1.78648 1.53102 1.78648H4.33002C5.55762 1.50748 6.78162 1.20868 8.00112 0.89098C9.17922 0.57328 9.43752 0.46798 10.2619 0.24118C12.1096 -0.23762 13.3921 0.0260798 14.2255 0.84508ZM12.0817 1.22668C11.3446 1.22668 10.4113 1.45348 9.99732 1.58578C9.85152 1.63168 9.59592 1.70728 9.32682 1.78468L9.05682 1.86298L8.79762 1.93678L8.29362 2.07898C8.29362 2.07898 7.02462 2.41918 4.53792 2.99698C4.44522 3.00778 4.39572 3.01498 4.38852 3.01678V9.65878C5.74842 10.1826 6.80772 10.818 7.56552 11.565C8.70312 12.6846 9.01902 13.6962 9.20532 14.9913C9.31152 15.642 9.48342 16.1667 9.74262 16.5258C9.81707 16.6334 9.92544 16.7129 10.0504 16.7517C10.1827 16.794 10.3654 16.7967 10.7551 16.5861C11.1448 16.3737 11.6461 15.8184 11.7406 14.9913C11.8036 14.1876 11.5876 13.491 11.2978 12.7584C11.1978 12.5088 11.0906 12.2621 10.9765 12.0186C10.7803 11.6469 11.0755 11.0295 11.6839 11.1636C12.4993 11.3931 14.5225 11.7036 15.6637 11.1636C16.327 10.7793 16.4917 10.1592 16.156 9.30418C16.045 9.10817 15.8931 8.93841 15.7105 8.80648C15.5575 8.71468 15.2587 8.31688 15.6178 7.86598C15.9742 7.29448 16.4953 6.13078 15.1768 5.40538C15.0848 5.3548 15.0079 5.28061 14.9542 5.19043C14.9004 5.10026 14.8716 4.99737 14.8708 4.89238C14.8528 4.64578 14.8924 3.73138 14.2138 3.32278C14.0518 3.23548 13.8565 3.16348 13.7458 2.95378C13.6756 2.81518 13.6531 2.47858 13.6531 2.47858C13.5604 1.90978 13.4326 1.37878 12.0817 1.22668ZM3.16632 3.01318H1.67412V9.45448H3.16632V3.01318Z" fill="#E40000"/>
</svg>
