<svg width="24" height="24" viewBox="0 0 24 24" fill="none" xmlns="http://www.w3.org/2000/svg">
<g clip-path="url(#clip0_372_24722)">
<path d="M12 24C18.6274 24 24 18.6274 24 12C24 5.37258 18.6274 0 12 0C5.37258 0 0 5.37258 0 12C0 18.6274 5.37258 24 12 24Z" fill="#3B5998"/>
<path d="M15.0182 12.4697H12.877V20.3142H9.63279V12.4697H8.08984V9.71278H9.63279V7.92876C9.63279 6.65299 10.2388 4.65527 12.9058 4.65527L15.3089 4.66533V7.34136H13.5653C13.2793 7.34136 12.8772 7.48425 12.8772 8.09283V9.71535H15.3017L15.0182 12.4697Z" fill="white"/>
</g>
<defs>
<clipPath id="clip0_372_24722">
<rect width="24" height="24" fill="white"/>
</clipPath>
</defs>
</svg>
