<svg width="23" height="19" viewBox="0 0 23 19" fill="none" xmlns="http://www.w3.org/2000/svg">
<path d="M0.0031414 4.36891V4.33699C0.0118713 4.31479 0.0225449 4.29344 0.0350666 4.27314L0.0590076 4.24122L0.106894 4.18934L0.134827 4.1654L0.186703 4.14146H0.206654L8.87387 0.597953C8.96984 0.559146 9.07718 0.559146 9.17315 0.597953L17.8204 4.0816H17.8404L17.8922 4.10554L17.9202 4.12949L17.9681 4.18136L17.992 4.21328C18.0045 4.23359 18.0152 4.25493 18.0239 4.27713V4.30905C18.0281 4.34218 18.0281 4.37569 18.0239 4.40882V7.60116H22.601C22.8213 7.60116 23 7.77983 23 8.0002C23 8.22057 22.8213 8.39925 22.601 8.39925V8.45112H18.0718V9.81585H19.6241C19.8445 9.81585 20.0231 9.99452 20.0231 10.2149C20.0231 10.4353 19.8445 10.6139 19.6241 10.6139H18.0718V11.9787H21.751C21.9714 11.9787 22.15 12.1573 22.15 12.3777C22.15 12.5981 21.9714 12.7768 21.751 12.7768H18.0718V14.4447C18.071 14.6059 17.9734 14.7507 17.8244 14.8119L9.17315 18.4033C9.12991 18.4204 9.08397 18.4298 9.03748 18.4312C8.99099 18.4298 8.94505 18.4204 8.9018 18.4033L0.250549 14.8119C0.101557 14.7507 0.00393867 14.6059 0.0031414 14.4447V4.46867C-0.00104904 4.43555 -0.00104904 4.40203 0.0031414 4.36891ZM9.02551 1.40801L5.74537 2.72086L13.2075 5.87729L16.6193 4.4567L9.02551 1.40801ZM9.43652 17.4416L17.2737 14.1774V12.7728H15.6177C15.3973 12.7728 15.2187 12.5941 15.2187 12.3737C15.2187 12.1533 15.3973 11.9747 15.6177 11.9747H17.2737V10.6099H13.4828C13.2624 10.6099 13.0838 10.4313 13.0838 10.2109C13.0838 9.99053 13.2624 9.81186 13.4828 9.81186H17.2737V8.45112H16.4756C16.2553 8.45112 16.0766 8.27245 16.0766 8.05208C16.0766 7.83171 16.2553 7.65304 16.4756 7.65304H17.2737V5.05127L14.225 6.31225L9.43652 8.30747V17.4416ZM9.02152 7.63308L12.174 6.31225L4.70387 3.14385L1.43571 4.46069L6.19629 6.45591L9.02152 7.63308ZM8.62646 17.4416V8.30747L6.37985 7.37371L0.793247 5.04329L0.773294 14.1774L8.62646 17.4416Z" fill="#D9A624"/>
</svg>
