<svg width="16" height="16" viewBox="0 0 16 16" fill="none" xmlns="http://www.w3.org/2000/svg">
<g clip-path="url(#clip0_135_56312)">
<path d="M11.8019 15.3541C11.6759 15.3541 11.5473 15.3382 11.4198 15.3048L1.11025 12.544C0.314943 12.3247 -0.159067 11.502 0.0489455 10.7073L1.18227 6.36125C1.25161 6.09452 1.52432 5.93253 1.79227 6.00394C2.059 6.07328 2.21965 6.3466 2.14971 6.61394L1.01625 10.9607C0.946306 11.2287 1.10561 11.5053 1.37234 11.5787L11.6759 14.3381C11.9406 14.4081 12.2139 14.2507 12.2833 13.9874L12.6352 12.5673C12.702 12.2994 12.9726 12.1367 13.2406 12.2021C13.5086 12.2687 13.672 12.5394 13.6059 12.8073L13.2526 14.2341C13.0745 14.9094 12.4666 15.3541 11.8019 15.3541Z" fill="#E40000"/>
<path d="M14.4999 11.354H4.1663C3.33901 11.354 2.66626 10.6813 2.66626 9.85398V2.18705C2.66626 1.35976 3.33901 0.687012 4.1663 0.687012H14.4999C15.3272 0.687012 16 1.35976 16 2.18705V9.85398C16 10.6813 15.3272 11.354 14.4999 11.354ZM4.1663 1.68704C3.89029 1.68704 3.66628 1.91104 3.66628 2.18705V9.85398C3.66628 10.13 3.89029 10.354 4.1663 10.354H14.4999C14.7759 10.354 14.9999 10.13 14.9999 9.85398V2.18705C14.9999 1.91104 14.7759 1.68704 14.4999 1.68704H4.1663Z" fill="#E40000"/>
<path d="M5.99967 5.35382C5.2643 5.35382 4.66626 4.75579 4.66626 4.02042C4.66626 3.28505 5.2643 2.68701 5.99967 2.68701C6.73504 2.68701 7.33295 3.28505 7.33295 4.02042C7.33295 4.75579 6.73504 5.35382 5.99967 5.35382ZM5.99967 3.68704C5.81558 3.68704 5.66628 3.83645 5.66628 4.02042C5.66628 4.20438 5.81558 4.3538 5.99967 4.3538C6.18363 4.3538 6.33293 4.20438 6.33293 4.02042C6.33293 3.83645 6.18363 3.68704 5.99967 3.68704Z" fill="#E40000"/>
<path d="M3.1797 10.6741C3.05177 10.6741 2.92371 10.6254 2.82642 10.5275C2.6311 10.3322 2.6311 10.0154 2.82642 9.82008L5.8398 6.8067C6.29586 6.35063 7.03783 6.35063 7.49316 6.8067L8.29921 7.61275L10.7752 4.64063C10.9965 4.37524 11.3213 4.22192 11.666 4.21996C12.0366 4.19933 12.3367 4.36792 12.5599 4.63001L15.8787 8.50205C16.0587 8.71141 16.034 9.02746 15.8247 9.20739C15.6147 9.38745 15.2994 9.36279 15.1193 9.15344L11.7993 5.28005C11.7552 5.22731 11.7013 5.23 11.6712 5.2206C11.6427 5.2206 11.5873 5.22927 11.5433 5.28127L8.71658 8.67479C8.62649 8.7827 8.49526 8.84813 8.35524 8.85411C8.21254 8.86205 8.07789 8.80736 7.97913 8.70811L6.78587 7.51472C6.70115 7.43 6.6312 7.43 6.54648 7.51472L3.5331 10.5275C3.43569 10.6254 3.30775 10.6741 3.1797 10.6741Z" fill="#E40000"/>
</g>
<defs>
<clipPath id="clip0_135_56312">
<rect width="16" height="16" fill="white"/>
</clipPath>
</defs>
</svg>
