<svg width="16" height="16" viewBox="0 0 16 16" fill="none" xmlns="http://www.w3.org/2000/svg">
<path d="M12.2001 6.675H12.0501C11.8751 3.65 10.1251 1.25 8.0001 1.25C5.8751 1.25 4.1251 3.625 3.9501 6.65H3.8001C2.7251 6.65 1.8501 7.525 1.8501 8.6V13.7C1.8501 14.25 2.3001 14.7 2.8501 14.7H13.1501C13.7001 14.7 14.1501 14.25 14.1501 13.7V8.625C14.1501 7.55 13.2751 6.675 12.2001 6.675ZM8.0001 2.25C9.6751 2.25 11.0751 4.5 11.0751 7.15C11.0751 9.8 9.6751 12.075 8.0001 12.075C6.3251 12.075 4.9251 9.825 4.9251 7.175C4.9251 4.525 6.3251 2.25 8.0001 2.25ZM13.1501 13.75H2.8501V8.625C2.8501 8.1 3.2751 7.675 3.8001 7.675H3.9501C4.1251 10.7 5.8751 13.075 8.0001 13.075C10.1251 13.075 11.8751 10.7 12.0501 7.675H12.2001C12.7251 7.675 13.1501 8.1 13.1501 8.625V13.75Z" fill="#E40000"/>
</svg>
