<svg width="16" height="16" viewBox="0 0 16 16" fill="none" xmlns="http://www.w3.org/2000/svg">
<path d="M6.6665 12.5333C6.6665 12.2388 6.90529 12 7.19984 12H8.91717C9.21172 12 9.4505 12.2388 9.4505 12.5333C9.4505 12.8279 9.21172 13.0667 8.91717 13.0667H7.19984C6.90529 13.0667 6.6665 12.8279 6.6665 12.5333Z" fill="#E40000"/>
<path fill-rule="evenodd" clip-rule="evenodd" d="M3.09325 2.2666C2.12647 2.2666 1.33325 3.04368 1.33325 4.01392V10.1193C1.33325 11.0895 2.12647 11.8666 3.09325 11.8666H4.93325V13.3333C4.93325 14.0697 5.53021 14.6666 6.26659 14.6666H9.86659C10.603 14.6666 11.1999 14.0697 11.1999 13.3333V11.8666H12.9066C13.8734 11.8666 14.6666 11.0895 14.6666 10.1193V4.01392C14.6666 3.04368 13.8734 2.2666 12.9066 2.2666H3.09325ZM11.1999 10.7999H12.9066C13.2947 10.7999 13.5999 10.49 13.5999 10.1193V4.01392C13.5999 3.64322 13.2947 3.33327 12.9066 3.33327H3.09325C2.70509 3.33327 2.39992 3.64322 2.39992 4.01392V10.1193C2.39992 10.49 2.70509 10.7999 3.09325 10.7999H4.93325V6.6666C4.93325 5.93023 5.53021 5.33327 6.26659 5.33327H9.86659C10.603 5.33327 11.1999 5.93023 11.1999 6.6666V10.7999ZM9.86659 6.39994H6.26659C6.11931 6.39994 5.99992 6.51932 5.99992 6.6666V13.3333C5.99992 13.4806 6.11931 13.5999 6.26659 13.5999H9.86659C10.0139 13.5999 10.1333 13.4806 10.1333 13.3333V6.6666C10.1333 6.51932 10.0139 6.39994 9.86659 6.39994Z" fill="#E40000"/>
</svg>
