<svg width="21" height="20" viewBox="0 0 21 20" fill="none" xmlns="http://www.w3.org/2000/svg">
<g clip-path="url(#clip0_563_11020)">
<path d="M18.8932 3.30815C16.718 1.13358 13.1795 1.13358 11.0049 3.30815L10.4998 3.81294L9.99504 3.30815C7.82046 1.13329 4.28163 1.13329 2.10706 3.30815C-0.0233607 5.43857 -0.0371947 8.81552 2.07498 11.1635C4.00142 13.3042 9.68304 17.9291 9.9241 18.1249C10.0878 18.2579 10.2847 18.3226 10.4804 18.3226C10.4869 18.3226 10.4934 18.3226 10.4995 18.3224C10.702 18.3318 10.906 18.2623 11.075 18.1249C11.316 17.9291 16.9982 13.3042 18.9253 11.1632C21.0371 8.81552 21.0233 5.43857 18.8932 3.30815ZM17.6125 9.98198C16.1105 11.6506 11.9818 15.092 10.4995 16.3132C9.01724 15.0923 4.88944 11.6512 3.38773 9.98228C1.91427 8.34458 1.90044 6.01224 3.35564 4.55703C4.09885 3.81412 5.07488 3.44237 6.0509 3.44237C7.02693 3.44237 8.00295 3.81383 8.74616 4.55703L9.8564 5.66727C9.98856 5.79943 10.1552 5.87831 10.33 5.90598C10.6137 5.96691 10.9216 5.88773 11.1424 5.66757L12.2532 4.55703C13.7399 3.07092 16.1582 3.07121 17.644 4.55703C19.0992 6.01224 19.0854 8.34458 17.6125 9.98198Z" fill="#E40000"/>
</g>
<defs>
<clipPath id="clip0_563_11020">
<rect width="20" height="20" fill="white" transform="translate(0.5)"/>
</clipPath>
</defs>
</svg>
