<svg width="16" height="16" viewBox="0 0 16 16" fill="none" xmlns="http://www.w3.org/2000/svg">
<path d="M16 8.00011C16 7.83608 15.9132 7.68427 15.7719 7.60099L14.0722 6.59952L15.7719 5.59805C15.9132 5.5148 16 5.36299 16 5.19892C16 5.03489 15.9132 4.88308 15.7719 4.7998L8.23516 0.359268C8.09003 0.273799 7.91 0.273799 7.76487 0.359268L0.228094 4.79986C0.0867812 4.88314 0 5.03496 0 5.19896C0 5.36296 0.0867812 5.5148 0.228094 5.59808L1.92781 6.59955L0.228094 7.60099C0.0867812 7.68427 0 7.83608 0 8.00011C0 8.16411 0.0867812 8.31596 0.228094 8.39924L1.92781 9.40071L0.228094 10.4021C0.0867812 10.4854 0 10.6372 0 10.8012C0 10.9652 0.0867812 11.1171 0.228094 11.2004L7.76484 15.641C7.83741 15.6837 7.91866 15.7051 7.99997 15.7051C8.08128 15.7051 8.16256 15.6837 8.23509 15.641L15.7719 11.2004C15.9132 11.1171 16 10.9653 16 10.8012C16 10.6372 15.9132 10.4854 15.7719 10.4021L14.0722 9.40064L15.7719 8.39917C15.9132 8.31596 16 8.16414 16 8.00011ZM1.37575 5.19896L8 1.29602L14.6243 5.19899L8 9.10192L1.37575 5.19896ZM14.6243 10.8012L8 14.7042L1.37575 10.8012L2.84034 9.9383L7.76491 12.8398C7.83747 12.8825 7.91872 12.9039 8.00003 12.9039C8.08134 12.9039 8.16262 12.8825 8.23516 12.8398L13.1597 9.9383L14.6243 10.8012ZM8 11.903L1.37575 8.00011L2.84034 7.13717L7.76487 10.0387C7.83744 10.0814 7.91869 10.1028 8 10.1028C8.08131 10.1028 8.16259 10.0814 8.23512 10.0387L13.1597 7.13717L14.6242 8.00011L8 11.903Z" fill="#E40000"/>
</svg>
