<svg width="16" height="16" viewBox="0 0 16 16" fill="none" xmlns="http://www.w3.org/2000/svg">
<g clip-path="url(#clip0_135_56312)">
<path d="M11.8019 15.3541C11.6759 15.3541 11.5473 15.3382 11.4198 15.3048L1.11025 12.544C0.314943 12.3247 -0.159067 11.502 0.0489455 10.7073L1.18227 6.36125C1.25161 6.09452 1.52432 5.93253 1.79227 6.00394C2.059 6.07328 2.21965 6.3466 2.1497 6.61394L1.01625 10.9607C0.946306 11.2287 1.10561 11.5053 1.37234 11.5787L11.6759 14.3381C11.9406 14.4081 12.2139 14.2507 12.2833 13.9874L12.6352 12.5673C12.702 12.2994 12.9726 12.1367 13.2406 12.2021C13.5086 12.2687 13.672 12.5394 13.6059 12.8073L13.2526 14.2341C13.0745 14.9094 12.4666 15.3541 11.8019 15.3541Z" fill="#2E3237"/>
<path d="M14.5 11.354H4.16642C3.33913 11.354 2.66638 10.6813 2.66638 9.85398V2.18705C2.66638 1.35976 3.33913 0.687012 4.16642 0.687012H14.5C15.3273 0.687012 16.0001 1.35976 16.0001 2.18705V9.85398C16.0001 10.6813 15.3273 11.354 14.5 11.354ZM4.16642 1.68704C3.89041 1.68704 3.66641 1.91104 3.66641 2.18705V9.85398C3.66641 10.13 3.89041 10.354 4.16642 10.354H14.5C14.7761 10.354 15.0001 10.13 15.0001 9.85398V2.18705C15.0001 1.91104 14.7761 1.68704 14.5 1.68704H4.16642Z" fill="#2E3237"/>
<path d="M5.99979 5.35382C5.26442 5.35382 4.66638 4.75579 4.66638 4.02042C4.66638 3.28505 5.26442 2.68701 5.99979 2.68701C6.73516 2.68701 7.33307 3.28505 7.33307 4.02042C7.33307 4.75579 6.73516 5.35382 5.99979 5.35382ZM5.99979 3.68704C5.8157 3.68704 5.66641 3.83645 5.66641 4.02042C5.66641 4.20438 5.8157 4.3538 5.99979 4.3538C6.18375 4.3538 6.33305 4.20438 6.33305 4.02042C6.33305 3.83645 6.18375 3.68704 5.99979 3.68704Z" fill="#2E3237"/>
<path d="M3.1797 10.6741C3.05177 10.6741 2.92371 10.6254 2.82642 10.5275C2.6311 10.3322 2.6311 10.0154 2.82642 9.82008L5.8398 6.8067C6.29586 6.35063 7.03783 6.35063 7.49316 6.8067L8.29921 7.61275L10.7752 4.64063C10.9965 4.37524 11.3213 4.22192 11.666 4.21996C12.0366 4.19933 12.3367 4.36792 12.5599 4.63001L15.8787 8.50205C16.0587 8.71141 16.034 9.02746 15.8247 9.20739C15.6147 9.38745 15.2994 9.36279 15.1193 9.15344L11.7993 5.28005C11.7552 5.22731 11.7013 5.23 11.6712 5.2206C11.6427 5.2206 11.5873 5.22927 11.5433 5.28127L8.71658 8.67479C8.62649 8.7827 8.49526 8.84813 8.35524 8.85411C8.21254 8.86205 8.07789 8.80736 7.97913 8.70811L6.78587 7.51472C6.70115 7.43 6.6312 7.43 6.54648 7.51472L3.5331 10.5275C3.43569 10.6254 3.30775 10.6741 3.1797 10.6741Z" fill="#2E3237"/>
</g>
<defs>
<clipPath id="clip0_135_56312">
<rect width="16" height="16" fill="white"/>
</clipPath>
</defs>
</svg>
