<svg width="14" height="13" viewBox="0 0 14 13" fill="none" xmlns="http://www.w3.org/2000/svg">
<path fill-rule="evenodd" clip-rule="evenodd" d="M2.09337 0.266602C1.12659 0.266602 0.333374 1.04368 0.333374 2.01392V8.11928C0.333374 9.08952 1.12659 9.8666 2.09337 9.8666H3.93337V11.3333C3.93337 12.0697 4.53033 12.6666 5.26671 12.6666H8.86671C9.60308 12.6666 10.2 12.0697 10.2 11.3333V9.8666H11.9067C12.8735 9.8666 13.6667 9.08952 13.6667 8.11928V2.01392C13.6667 1.04368 12.8735 0.266602 11.9067 0.266602H2.09337ZM10.2 8.79994H11.9067C12.2949 8.79994 12.6 8.48999 12.6 8.11928V2.01392C12.6 1.64322 12.2949 1.33327 11.9067 1.33327H2.09337C1.70521 1.33327 1.40004 1.64322 1.40004 2.01392V8.11928C1.40004 8.48999 1.70521 8.79994 2.09337 8.79994H3.93337V4.6666C3.93337 3.93023 4.53033 3.33327 5.26671 3.33327H8.86671C9.60309 3.33327 10.2 3.93023 10.2 4.6666V8.79994ZM8.86671 4.39994H5.26671C5.11943 4.39994 5.00004 4.51932 5.00004 4.6666V11.3333C5.00004 11.4806 5.11943 11.5999 5.26671 11.5999H8.86671C9.01399 11.5999 9.13337 11.4806 9.13337 11.3333V4.6666C9.13337 4.51932 9.01399 4.39994 8.86671 4.39994Z" fill="#E40000"/>
</svg>
