<svg width="16" height="16" viewBox="0 0 16 16" fill="none" xmlns="http://www.w3.org/2000/svg">
<path d="M13.3333 5.33333H2.66667C2.26667 5.33333 2 5.06667 2 4.66667C2 4.26667 2.26667 4 2.66667 4H13.3333C13.7333 4 14 4.26667 14 4.66667C14 5.06667 13.7333 5.33333 13.3333 5.33333Z" fill="#E40000"/>
<path d="M13.3333 12.0001H2.66667C2.26667 12.0001 2 11.7334 2 11.3334C2 10.9334 2.26667 10.6667 2.66667 10.6667H13.3333C13.7333 10.6667 14 10.9334 14 11.3334C14 11.7334 13.7333 12.0001 13.3333 12.0001Z" fill="#E40000"/>
<path d="M4.66667 14C4.26667 14 4 13.7333 4 13.3333V2.66667C4 2.26667 4.26667 2 4.66667 2C5.06667 2 5.33333 2.26667 5.33333 2.66667V13.3333C5.33333 13.7333 5.06667 14 4.66667 14Z" fill="#E40000"/>
<path d="M11.3333 14C10.9333 14 10.6666 13.7333 10.6666 13.3333V2.66667C10.6666 2.26667 10.9333 2 11.3333 2C11.7333 2 12 2.26667 12 2.66667V13.3333C12 13.7333 11.7333 14 11.3333 14Z" fill="#E40000"/>
</svg>
