<svg width="14" height="14" viewBox="0 0 14 14" fill="none" xmlns="http://www.w3.org/2000/svg">
<path d="M11.2 5.675H11.05C10.875 2.65 9.12498 0.25 6.99998 0.25C4.87498 0.25 3.12498 2.625 2.94998 5.65H2.79998C1.72498 5.65 0.849976 6.525 0.849976 7.6V12.7C0.849976 13.25 1.29998 13.7 1.84998 13.7H12.15C12.7 13.7 13.15 13.25 13.15 12.7V7.625C13.15 6.55 12.275 5.675 11.2 5.675ZM6.99998 1.25C8.67498 1.25 10.075 3.5 10.075 6.15C10.075 8.8 8.67498 11.075 6.99998 11.075C5.32498 11.075 3.92498 8.825 3.92498 6.175C3.92498 3.525 5.32498 1.25 6.99998 1.25ZM12.15 12.75H1.84998V7.625C1.84998 7.1 2.27498 6.675 2.79998 6.675H2.94998C3.12498 9.7 4.87498 12.075 6.99998 12.075C9.12498 12.075 10.875 9.7 11.05 6.675H11.2C11.725 6.675 12.15 7.1 12.15 7.625V12.75Z" fill="#E40000"/>
</svg>
