<svg width="24" height="24" viewBox="0 0 24 24" fill="none" xmlns="http://www.w3.org/2000/svg">
<g clip-path="url(#clip0_511_14720)">
<path d="M16.8503 0H7.14973C3.20735 0 0 3.20735 0 7.14973V16.8503C0 20.7926 3.20735 24 7.14973 24H16.8503C20.7926 24 24 20.7926 24 16.8503V7.14973C24 3.20735 20.7926 0 16.8503 0ZM21.5856 16.8503C21.5856 19.4655 19.4655 21.5856 16.8503 21.5856H7.14973C4.5345 21.5856 2.4144 19.4655 2.4144 16.8503V7.14973C2.4144 4.53446 4.5345 2.4144 7.14973 2.4144H16.8503C19.4655 2.4144 21.5856 4.53446 21.5856 7.14973V16.8503Z" fill="url(#paint0_linear_511_14720)"/>
<path d="M12.0002 5.79276C8.57754 5.79276 5.79297 8.57732 5.79297 12C5.79297 15.4226 8.57754 18.2072 12.0002 18.2072C15.4229 18.2072 18.2075 15.4227 18.2075 12C18.2075 8.57728 15.4229 5.79276 12.0002 5.79276ZM12.0002 15.7929C9.90547 15.7929 8.20737 14.0948 8.20737 12C8.20737 9.90526 9.90551 8.20715 12.0002 8.20715C14.095 8.20715 15.7931 9.90526 15.7931 12C15.7931 14.0947 14.0949 15.7929 12.0002 15.7929Z" fill="url(#paint1_linear_511_14720)"/>
<path d="M18.2179 7.32673C19.0393 7.32673 19.7052 6.66081 19.7052 5.83935C19.7052 5.01788 19.0393 4.35196 18.2179 4.35196C17.3964 4.35196 16.7305 5.01788 16.7305 5.83935C16.7305 6.66081 17.3964 7.32673 18.2179 7.32673Z" fill="url(#paint2_linear_511_14720)"/>
</g>
<defs>
<linearGradient id="paint0_linear_511_14720" x1="12" y1="23.9301" x2="12" y2="0.186412" gradientUnits="userSpaceOnUse">
<stop stop-color="#E09B3D"/>
<stop offset="0.3" stop-color="#C74C4D"/>
<stop offset="0.6" stop-color="#C21975"/>
<stop offset="1" stop-color="#7024C4"/>
</linearGradient>
<linearGradient id="paint1_linear_511_14720" x1="12.0002" y1="23.9301" x2="12.0002" y2="0.186423" gradientUnits="userSpaceOnUse">
<stop stop-color="#E09B3D"/>
<stop offset="0.3" stop-color="#C74C4D"/>
<stop offset="0.6" stop-color="#C21975"/>
<stop offset="1" stop-color="#7024C4"/>
</linearGradient>
<linearGradient id="paint2_linear_511_14720" x1="18.2179" y1="23.9301" x2="18.2179" y2="0.186409" gradientUnits="userSpaceOnUse">
<stop stop-color="#E09B3D"/>
<stop offset="0.3" stop-color="#C74C4D"/>
<stop offset="0.6" stop-color="#C21975"/>
<stop offset="1" stop-color="#7024C4"/>
</linearGradient>
<clipPath id="clip0_511_14720">
<rect width="24" height="24" fill="white"/>
</clipPath>
</defs>
</svg>
