<svg width="24" height="24" viewBox="0 0 24 24" fill="none" xmlns="http://www.w3.org/2000/svg">
<g clip-path="url(#clip0_372_24726)">
<path d="M24 12C24 5.37258 18.6274 0 12 0C5.37258 0 0 5.37258 0 12C0 18.6274 5.37258 24 12 24C18.6274 24 24 18.6274 24 12Z" fill="url(#paint0_linear_372_24726)"/>
<path opacity="0.1" d="M21.0314 4.10526C19.282 7.31684 16.8078 10.6295 13.7162 13.721C10.6246 16.8126 7.31197 19.2821 4.10513 21.0316C3.90408 20.8568 3.70881 20.6747 3.51934 20.4853C2.37406 19.3782 1.46064 18.0542 0.832344 16.5905C0.204046 15.1268 -0.126556 13.5527 -0.140186 11.9599C-0.153815 10.3671 0.1498 8.78748 0.752958 7.31323C1.35611 5.83898 2.24674 4.49956 3.37291 3.37308C4.49908 2.2466 5.83824 1.3556 7.31232 0.752029C8.7864 0.14846 10.3659 -0.155596 11.9587 -0.142411C13.5515 -0.129226 15.1258 0.200937 16.5896 0.828826C18.0535 1.45671 19.3778 2.36976 20.4851 3.51473C20.6746 3.70421 20.8567 3.90105 21.0314 4.10526Z" fill="white"/>
<path d="M14.8415 5.6842H9.15728C8.236 5.6842 7.35245 6.05018 6.70101 6.70162C6.04957 7.35306 5.68359 8.23661 5.68359 9.15789V14.8421C5.68359 15.7634 6.04957 16.6469 6.70101 17.2984C7.35245 17.9498 8.236 18.3158 9.15728 18.3158H14.8415C15.7628 18.3158 16.6463 17.9498 17.2978 17.2984C17.9492 16.6469 18.3152 15.7634 18.3152 14.8421V9.15789C18.3152 8.23661 17.9492 7.35306 17.2978 6.70162C16.6463 6.05018 15.7628 5.6842 14.8415 5.6842ZM17.2099 14.3432C17.2099 15.1036 16.9078 15.833 16.3701 16.3707C15.8323 16.9084 15.103 17.2105 14.3425 17.2105H9.65623C8.89575 17.2105 8.16643 16.9084 7.62869 16.3707C7.09095 15.833 6.78886 15.1036 6.78886 14.3432V9.65684C6.78886 8.89636 7.09095 8.16704 7.62869 7.6293C8.16643 7.09156 8.89575 6.78947 9.65623 6.78947H14.3425C15.103 6.78947 15.8323 7.09156 16.3701 7.6293C16.9078 8.16704 17.2099 8.89636 17.2099 9.65684V14.3432Z" fill="white"/>
<path d="M14.3029 9.72001L14.2729 9.69001L14.2477 9.66475C13.6506 9.06981 12.8421 8.73593 11.9992 8.73633C11.5736 8.73922 11.1527 8.82595 10.7606 8.99155C10.3685 9.15715 10.0129 9.39838 9.7141 9.70147C9.41527 10.0046 9.17908 10.3635 9.01903 10.7579C8.85899 11.1523 8.77822 11.5744 8.78134 12C8.78069 12.8638 9.12118 13.6929 9.72871 14.3069C10.0263 14.6081 10.3809 14.847 10.7718 15.0096C11.1627 15.1723 11.5821 15.2554 12.0055 15.2542C12.6407 15.2409 13.2582 15.0431 13.7828 14.6848C14.3074 14.3266 14.7164 13.8234 14.96 13.2367C15.2035 12.65 15.2711 12.0051 15.1544 11.3807C15.0377 10.7562 14.7419 10.1792 14.3029 9.72001ZM11.9992 14.1411C11.5745 14.147 11.1577 14.0265 10.8017 13.7949C10.4456 13.5633 10.1666 13.231 9.9999 12.8404C9.83324 12.4497 9.78653 12.0183 9.86573 11.601C9.94492 11.1837 10.1464 10.7994 10.4446 10.497C10.7428 10.1945 11.1243 9.98763 11.5404 9.90256C11.9565 9.81749 12.3885 9.8581 12.7815 10.0192C13.1745 10.1804 13.5106 10.4547 13.7473 10.8074C13.9839 11.1602 14.1102 11.5753 14.1103 12C14.1124 12.2792 14.0594 12.5561 13.9544 12.8149C13.8494 13.0736 13.6945 13.3092 13.4984 13.508C13.3024 13.7068 13.0691 13.8651 12.8118 13.9737C12.5546 14.0823 12.2785 14.1392 11.9992 14.1411Z" fill="white"/>
<path d="M16.1743 8.58631C16.1752 8.68763 16.156 8.78812 16.118 8.88202C16.0799 8.97593 16.0237 9.06141 15.9526 9.13356C15.8814 9.20572 15.7968 9.26314 15.7034 9.30254C15.6101 9.34193 15.5099 9.36253 15.4085 9.36315C15.3081 9.3631 15.2086 9.34312 15.1159 9.30436C15.0232 9.26561 14.9392 9.20884 14.8685 9.13736C14.7616 9.02883 14.6888 8.89129 14.6593 8.74179C14.6298 8.5923 14.6448 8.43742 14.7024 8.29637C14.7601 8.15532 14.8579 8.03429 14.9837 7.9483C15.1095 7.86231 15.2578 7.81513 15.4101 7.81262C15.5885 7.81259 15.7611 7.87518 15.898 7.98946L15.9138 8.00525C15.9393 8.02598 15.9626 8.04926 15.9833 8.07473L16.0007 8.09367C16.1137 8.23291 16.175 8.40697 16.1743 8.58631Z" fill="white"/>
</g>
<defs>
<linearGradient id="paint0_linear_372_24726" x1="3.51474" y1="3.51474" x2="20.4853" y2="20.4853" gradientUnits="userSpaceOnUse">
<stop stop-color="#FAE100"/>
<stop offset="0.15" stop-color="#FCB720"/>
<stop offset="0.3" stop-color="#FF7950"/>
<stop offset="0.5" stop-color="#FF1C74"/>
<stop offset="1" stop-color="#6C1CD1"/>
</linearGradient>
<clipPath id="clip0_372_24726">
<rect width="24" height="24" fill="white"/>
</clipPath>
</defs>
</svg>
