<svg width="18" height="18" viewBox="0 0 18 18" fill="none" xmlns="http://www.w3.org/2000/svg">
<path d="M1.22383 8.54552V14.9868H3.95083L4.08853 15.003C6.62023 15.5934 8.29783 16.0191 9.13393 16.2828C10.2445 16.6329 10.6585 16.7184 11.4118 16.7688C11.9752 16.8075 12.6151 16.5906 12.9067 16.2936C13.0678 16.1298 13.1884 15.7932 13.2361 15.2712C13.246 15.1618 13.2851 15.057 13.3494 14.9678C13.4137 14.8787 13.5008 14.8085 13.6015 14.7645C13.8256 14.6673 14.0119 14.5089 14.1676 14.2785C14.3116 14.0679 14.4052 13.6755 14.4223 13.1076C14.4253 13.0032 14.4549 12.9013 14.5083 12.8115C14.5617 12.7218 14.6371 12.6471 14.7274 12.5946C15.2512 12.2913 15.5104 11.9493 15.5644 11.5479C15.6238 11.1042 15.4798 10.6047 15.1027 10.0359C15.0142 9.90252 14.9813 9.73987 15.0109 9.58255C15.0405 9.42524 15.1302 9.28566 15.2611 9.19352C15.622 8.93972 15.82 8.58692 15.8695 8.08652C15.9487 7.28912 15.4402 6.69962 14.2891 6.58172C13.2639 6.48032 12.2288 6.56663 11.2345 6.83642C11.1217 6.86589 11.0029 6.86254 10.8919 6.82676C10.781 6.79097 10.6826 6.72425 10.6083 6.63443C10.5339 6.54461 10.4868 6.43544 10.4725 6.31976C10.4581 6.20407 10.4771 6.08669 10.5271 5.98142C10.9771 5.02922 11.2273 4.24352 11.2858 3.63512C11.3623 2.82782 11.176 2.24282 10.7404 1.76042C10.4101 1.39502 9.88183 1.18622 9.68383 1.22942C9.42283 1.28522 9.25273 1.43642 9.03133 1.96562C8.90083 2.27882 8.83783 2.54522 8.72983 3.16712C8.62633 3.75752 8.56963 4.02392 8.45173 4.37312C8.09623 5.43152 7.22413 6.52862 6.05323 7.28552C5.2326 7.81536 4.34322 8.23022 3.40993 8.51852C3.35162 8.53649 3.29094 8.54559 3.22993 8.54552H1.22383ZM1.18603 16.2135C0.895326 16.2216 0.634326 16.1568 0.415626 16.0038C0.136626 15.8085 0.00522627 15.5007 0.00252627 15.1461L0.00522627 8.55542C-0.0253737 8.20442 0.0781263 7.88222 0.322926 7.64282C0.552426 7.41782 0.852126 7.31162 1.16893 7.31882H3.13543C3.9309 7.06535 4.68929 6.70764 5.39083 6.25502C6.33403 5.64482 7.02883 4.77002 7.29433 3.98162C7.38523 3.70982 7.43383 3.48482 7.52563 2.95562C7.64983 2.24552 7.72723 1.91522 7.90543 1.49042C8.27443 0.606617 8.75863 0.174617 9.42643 0.0297165C10.0834 -0.112483 11.0401 0.266416 11.6449 0.936016C12.3154 1.67762 12.6115 2.60552 12.5017 3.75212C12.4549 4.24532 12.3181 4.79702 12.0931 5.41172C12.8615 5.29974 13.6408 5.28281 14.4133 5.36132C16.2196 5.54582 17.2339 6.72212 17.0863 8.20892C17.0215 8.84972 16.7893 9.39422 16.3942 9.82172C16.7263 10.4616 16.8586 11.0943 16.7758 11.7117C16.6804 12.4227 16.2844 13.0149 15.6256 13.4748C15.5743 14.0985 15.4312 14.5962 15.1774 14.9688C14.9774 15.2698 14.7165 15.5256 14.4115 15.7194C14.3143 16.335 14.11 16.8165 13.7761 17.1549C13.2226 17.7183 12.2335 18.054 11.3299 17.9928C10.4722 17.9352 9.96463 17.8308 8.76763 17.4528C7.97833 17.2035 6.34393 16.7895 3.88063 16.2135H1.18603ZM2.71693 8.26562C2.71669 8.1851 2.73234 8.10532 2.76299 8.03086C2.79364 7.9564 2.83869 7.88872 2.89554 7.8317C2.95239 7.77468 3.01994 7.72944 3.09431 7.69857C3.16868 7.6677 3.24841 7.65182 3.32893 7.65182C3.4093 7.65205 3.48883 7.66812 3.56299 7.69909C3.63715 7.73006 3.70449 7.77534 3.76115 7.83234C3.81781 7.88934 3.86269 7.95693 3.89323 8.03128C3.92377 8.10562 3.93936 8.18525 3.93913 8.26562V15.1758C3.93924 15.2562 3.92353 15.3358 3.89289 15.4101C3.86224 15.4844 3.81726 15.5519 3.76051 15.6088C3.70377 15.6657 3.63637 15.7109 3.56216 15.7418C3.48795 15.7727 3.4084 15.7886 3.32803 15.7887C3.24766 15.7886 3.1681 15.7727 3.09389 15.7418C3.01969 15.7109 2.95229 15.6657 2.89554 15.6088C2.83879 15.5519 2.79381 15.4844 2.76317 15.4101C2.73252 15.3358 2.71681 15.2562 2.71693 15.1758V8.26562Z" fill="#E40000"/>
</svg>
