<svg width="16" height="16" viewBox="0 0 16 16" fill="none" xmlns="http://www.w3.org/2000/svg">
<g clip-path="url(#clip0_381_2650)">
<path d="M12.6854 2.0963H11.2379V1.44874C11.2379 1.23923 11.0094 1.144 10.7999 1.144H9.67618C9.40955 0.382157 8.74292 0.00123321 7.98107 0.00123321C7.22761 -0.0270927 6.54228 0.434908 6.28596 1.144H5.18129C4.97178 1.144 4.76227 1.23923 4.76227 1.44874V2.0963H3.31473C2.45693 2.10545 1.75516 2.78213 1.71484 3.63902V14.5525C1.71484 15.3905 2.47669 16 3.31473 16H12.6854C13.5235 16 14.2853 15.3905 14.2853 14.5525V3.63906C14.245 2.78213 13.5432 2.10545 12.6854 2.0963ZM5.52408 1.90585H6.57163C6.75449 1.88354 6.90137 1.74443 6.93352 1.56302C7.04632 1.07182 7.47726 0.719225 7.98107 0.705955C8.48022 0.721084 8.90468 1.07478 9.00956 1.56302C9.04372 1.7507 9.20029 1.8916 9.39048 1.90585H10.4761V3.42955H5.52408V1.90585ZM13.5235 14.5525C13.5235 14.9715 13.1045 15.2381 12.6854 15.2381H3.31473C2.89571 15.2381 2.47669 14.9715 2.47669 14.5525V3.63906C2.51555 3.2029 2.8769 2.86616 3.31473 2.85818H4.76223V3.82954C4.78236 4.04295 4.96719 4.20259 5.18125 4.19143H10.7999C11.0179 4.20335 11.2085 4.0459 11.2379 3.82954V2.85814H12.6854C13.1232 2.86616 13.4846 3.20287 13.5234 3.63902V14.5525H13.5235Z" fill="#F97B55"/>
<path d="M6.53352 8.51475C6.39065 8.36416 6.15347 8.35566 6.00021 8.49572L4.78125 9.65752L4.26701 9.12422C4.12414 8.97362 3.88696 8.96516 3.7337 9.10519C3.58616 9.25976 3.58616 9.50295 3.7337 9.65752L4.51458 10.4575C4.58216 10.5331 4.67979 10.575 4.78121 10.5718C4.88168 10.5703 4.97752 10.5292 5.04785 10.4575L6.53345 9.04806C6.68073 8.91296 6.69057 8.68402 6.55543 8.53677C6.5485 8.52908 6.54117 8.52175 6.53352 8.51475Z" fill="#F97B55"/>
<path d="M11.9998 9.33398H7.6192C7.40882 9.33398 7.23828 9.50452 7.23828 9.71491C7.23828 9.92529 7.40882 10.0958 7.6192 10.0958H11.9998C12.2102 10.0958 12.3807 9.92529 12.3807 9.71491C12.3807 9.50452 12.2102 9.33398 11.9998 9.33398Z" fill="#F97B55"/>
<path d="M6.53352 5.46739C6.39065 5.31679 6.15347 5.3083 6.00021 5.44836L4.78125 6.61016L4.26701 6.07685C4.12414 5.92626 3.88696 5.91776 3.7337 6.05782C3.58616 6.21239 3.58616 6.45559 3.7337 6.61016L4.51458 7.4101C4.58216 7.48579 4.67979 7.52764 4.78121 7.52439C4.88168 7.52297 4.97752 7.48188 5.04785 7.4101L6.53345 6.0007C6.68073 5.86559 6.69057 5.63665 6.55543 5.48941C6.5485 5.48172 6.54117 5.47439 6.53352 5.46739Z" fill="#F97B55"/>
<path d="M11.9998 6.28662H7.6192C7.40882 6.28662 7.23828 6.45716 7.23828 6.66755C7.23828 6.87793 7.40882 7.04847 7.6192 7.04847H11.9998C12.2102 7.04847 12.3807 6.87793 12.3807 6.66755C12.3807 6.45716 12.2102 6.28662 11.9998 6.28662Z" fill="#F97B55"/>
<path d="M6.53352 11.5621C6.39065 11.4115 6.15347 11.403 6.00021 11.5431L4.78125 12.7049L4.26701 12.1716C4.12414 12.021 3.88696 12.0125 3.7337 12.1525C3.58616 12.3071 3.58616 12.5503 3.7337 12.7049L4.51458 13.5048C4.58216 13.5805 4.67979 13.6223 4.78121 13.6191C4.88168 13.6177 4.97752 13.5766 5.04785 13.5048L6.53345 12.0954C6.68073 11.9603 6.69057 11.7314 6.55543 11.5841C6.5485 11.5765 6.54117 11.5691 6.53352 11.5621Z" fill="#F97B55"/>
<path d="M11.9998 12.3813H7.6192C7.40882 12.3813 7.23828 12.5519 7.23828 12.7623C7.23828 12.9727 7.40882 13.1432 7.6192 13.1432H11.9998C12.2102 13.1432 12.3807 12.9727 12.3807 12.7623C12.3807 12.5519 12.2102 12.3813 11.9998 12.3813Z" fill="#F97B55"/>
</g>
<defs>
<clipPath id="clip0_381_2650">
<rect width="16" height="16" fill="white"/>
</clipPath>
</defs>
</svg>
