<svg width="16" height="20" viewBox="0 0 16 20" fill="none" xmlns="http://www.w3.org/2000/svg">
<path d="M15.5 8.3335C15.5 14.1668 8 19.1668 8 19.1668C8 19.1668 0.5 14.1668 0.5 8.3335C0.5 6.34437 1.29018 4.43672 2.6967 3.0302C4.10322 1.62367 6.01088 0.833496 8 0.833496C9.98912 0.833496 11.8968 1.62367 13.3033 3.0302C14.7098 4.43672 15.5 6.34437 15.5 8.3335Z" stroke="#1A1A1A" stroke-linecap="round" stroke-linejoin="round"/>
<path d="M8 10.8335C9.38071 10.8335 10.5 9.71421 10.5 8.3335C10.5 6.95278 9.38071 5.8335 8 5.8335C6.61929 5.8335 5.5 6.95278 5.5 8.3335C5.5 9.71421 6.61929 10.8335 8 10.8335Z" stroke="#1A1A1A" stroke-linecap="round" stroke-linejoin="round"/>
</svg>
