<svg width="24" height="24" viewBox="0 0 24 24" fill="none" xmlns="http://www.w3.org/2000/svg">
<g clip-path="url(#clip0_372_24737)">
<path d="M11.9988 0.00233361C5.51407 -0.125529 0.148064 5.01691 0 11.5012C0.0169202 14.802 1.47848 17.9298 3.99959 20.0603V23.5C3.99959 23.7761 4.22345 24 4.49956 24C4.59326 24 4.68507 23.9736 4.76452 23.924L7.55125 22.1832C8.97105 22.7262 10.4787 23.0032 11.9988 23.0001C18.4836 23.128 23.8496 17.9855 23.9977 11.5012C23.8496 5.01691 18.4836 -0.125529 11.9988 0.00233361Z" fill="#2196F3"/>
<path d="M19.8978 8.20149C19.749 8.00211 19.4763 7.94244 19.2578 8.06149L14.0584 10.8962L10.8237 8.12247C10.6253 7.95242 10.3295 7.96372 10.1448 8.14848L4.14537 14.1479C3.95072 14.3437 3.95166 14.6603 4.14753 14.8549C4.30412 15.0106 4.54424 15.0451 4.73833 14.9398L9.93781 12.1051L13.1755 14.8798C13.3738 15.0499 13.6697 15.0386 13.8544 14.8538L19.8538 8.8544C20.0286 8.67793 20.0474 8.39985 19.8978 8.20149Z" fill="#FAFAFA"/>
</g>
<defs>
<clipPath id="clip0_372_24737">
<rect width="24" height="24" fill="white"/>
</clipPath>
</defs>
</svg>
