<svg width="33" height="32" viewBox="0 0 33 32" fill="none" xmlns="http://www.w3.org/2000/svg">
<g clip-path="url(#clip0_563_9387)">
<path d="M21.5454 20.3622H-7.54544C-8.34544 20.3622 -9 19.7077 -9 18.9077V2.90769C-9 2.10769 -8.34544 1.45312 -7.54544 1.45312H21.5455C22.3455 1.45312 23.0001 2.10769 23.0001 2.90769V18.9077C23 19.7077 22.3454 20.3622 21.5454 20.3622Z" fill="#0E9347"/>
<path d="M17.9074 14.5469C16.2346 14.5469 14.7074 15.3469 13.8346 16.6559C13.1074 16.2924 12.3074 16.0014 11.3619 16.0014C8.8165 16.0014 6.70737 17.8924 6.34375 20.3651H21.5437C22.271 20.3651 22.8528 19.856 22.9983 19.1287C22.7074 16.5833 20.5256 14.5469 17.9074 14.5469Z" fill="#0D8944"/>
<path d="M18.6349 18.9101H-4.63781C-4.63781 17.3101 -5.94687 16.001 -7.54688 16.001V5.81922C-5.94687 5.81922 -4.63781 4.51016 -4.63781 2.91016H18.6349C18.6349 4.51016 19.944 5.81922 21.544 5.81922V16.001C19.944 16.001 18.6349 17.3101 18.6349 18.9101Z" fill="#3BB54A"/>
<path d="M17.9085 14.5449C16.2358 14.5449 14.7085 15.3449 13.8358 16.654C13.1085 16.2904 12.3085 15.9995 11.3631 15.9995C9.32669 15.9995 7.58125 17.1631 6.78125 18.9085H18.6358C18.6358 17.3085 19.8722 16.0722 21.4722 15.9995C20.5267 15.1267 19.2904 14.5449 17.9085 14.5449Z" fill="#0E9347"/>
<path d="M7.00178 17.4542C10.2151 17.4542 12.82 14.5237 12.82 10.9087C12.82 7.29377 10.2151 4.36328 7.00178 4.36328C3.78849 4.36328 1.18359 7.29377 1.18359 10.9087C1.18359 14.5237 3.78849 17.4542 7.00178 17.4542Z" fill="#0E9347"/>
<path d="M15.728 12.3622C16.5313 12.3622 17.1826 11.711 17.1826 10.9077C17.1826 10.1044 16.5313 9.45312 15.728 9.45312C14.9247 9.45312 14.2734 10.1044 14.2734 10.9077C14.2734 11.711 14.9247 12.3622 15.728 12.3622Z" fill="#0E9347"/>
<path d="M7.73006 10.1831H6.2755C5.83913 10.1831 5.54825 9.89219 5.54825 9.45587C5.54825 9.0195 5.83919 8.72862 6.2755 8.72862H8.45731C8.89369 8.72862 9.18456 8.43769 9.18456 8.00138C9.18456 7.565 8.89363 7.27413 8.45731 7.27413H7.73006C7.73006 6.83775 7.43912 6.54688 7.00281 6.54688C6.56644 6.54688 6.27556 6.83781 6.27556 7.27413C5.03919 7.27413 4.09375 8.21956 4.09375 9.45594C4.09375 10.6923 5.03919 11.6378 6.27556 11.6378H7.73012C8.1665 11.6378 8.45738 11.9287 8.45738 12.365C8.45738 12.8014 8.16644 13.0923 7.73012 13.0923H5.54831C5.11194 13.0923 4.82106 13.3832 4.82106 13.8195C4.82106 14.2559 5.112 14.5468 5.54831 14.5468H6.27556C6.27556 14.9831 6.5665 15.274 7.00281 15.274C7.43919 15.274 7.73006 14.9831 7.73006 14.5468C8.96644 14.5468 9.91188 13.6013 9.91188 12.3649C9.91188 11.1286 8.96644 10.1831 7.73006 10.1831Z" fill="#89C763"/>
<path d="M9.90734 26.1819C12.719 26.1819 14.9983 23.9026 14.9983 21.0909C14.9983 18.2793 12.719 16 9.90734 16C7.0957 16 4.81641 18.2793 4.81641 21.0909C4.81641 23.9026 7.0957 26.1819 9.90734 26.1819Z" fill="#FFCA5D"/>
<path d="M16.4542 24.7287C19.2659 24.7287 21.5452 22.4495 21.5452 19.6378C21.5452 16.8262 19.2659 14.5469 16.4542 14.5469C13.6426 14.5469 11.3633 16.8262 11.3633 19.6378C11.3633 22.4495 13.6426 24.7287 16.4542 24.7287Z" fill="#F6B545"/>
<path d="M16.4542 14.5469C13.6178 14.5469 11.3633 16.8014 11.3633 19.6378C11.3633 22.4742 13.6178 24.7287 16.4542 24.7287C19.2906 24.7287 21.5452 22.4742 21.5452 19.6378C21.5452 16.8014 19.2906 14.5469 16.4542 14.5469ZM16.4542 23.2742C14.4178 23.2742 12.8178 21.6742 12.8178 19.6378C12.8178 17.6014 14.4178 16.0014 16.4542 16.0014C18.4906 16.0014 20.0906 17.6014 20.0906 19.6378C20.0906 21.6742 18.4906 23.2742 16.4542 23.2742Z" fill="#FFCB5B"/>
<path d="M16.4531 24.6549C19.2895 24.7277 21.5441 22.4003 21.5441 19.6367H21.4713C21.1077 19.6367 20.8168 19.9277 20.7441 20.2913C20.5986 21.3095 20.0895 22.2549 19.3622 22.9095C18.7804 23.4913 17.9804 23.8549 17.1077 24.0003C16.744 24.0003 16.4531 24.2913 16.4531 24.6549Z" fill="#F6B545"/>
<path d="M16.4542 14.6188C13.6178 14.5461 11.3633 16.8734 11.3633 19.637H11.436C11.7997 19.637 12.0906 19.3461 12.1633 18.9825C12.3087 17.9643 12.8178 17.0188 13.5451 16.3643C14.1269 15.7825 14.9269 15.4188 15.7997 15.2733C16.1633 15.2734 16.4542 14.9825 16.4542 14.6188Z" fill="#FFE27A"/>
<path d="M13.3255 20.1454C13.3255 18.1091 14.9255 16.5091 16.9618 16.5091C17.8346 16.5091 18.6346 16.8 19.2891 17.3818C18.5618 16.5091 17.6164 16 16.4528 16C14.4164 16 12.8164 17.6 12.8164 19.6364C12.8164 20.8 13.3255 21.7454 14.1255 22.4C13.6164 21.8182 13.3255 21.0182 13.3255 20.1454Z" fill="#F19920"/>
<path d="M18.6359 21.8916C18.5631 21.8916 18.4904 21.8916 18.4177 21.8189C18.2722 21.6734 18.2722 21.4553 18.4177 21.3098C18.854 20.8734 19.0722 20.2189 19.0722 19.6371C19.0722 19.4189 19.2177 19.2734 19.4359 19.2734C19.654 19.2734 19.7995 19.4189 19.7995 19.6371C19.7995 20.4371 19.5085 21.2371 18.9995 21.8189C18.854 21.8916 18.7085 21.8916 18.6359 21.8916Z" fill="#FFCB5B"/>
<path d="M16.4538 21.8186C16.0174 21.8186 15.7266 21.5277 15.7266 21.0914V18.1823C15.7266 17.746 16.0175 17.4551 16.4538 17.4551C16.8901 17.4551 17.1811 17.746 17.1811 18.1823V21.0914C17.1811 21.5277 16.8902 21.8186 16.4538 21.8186Z" fill="#F19920"/>
<path d="M19.1466 23.9272C18.6376 22.1091 17.3284 20.6545 15.6557 20C15.3647 18.3273 14.2739 16.8727 12.8921 16C12.0193 16.9454 11.4375 18.1818 11.4375 19.5636C11.4375 22.4 13.6921 24.6546 16.5284 24.6546C17.4739 24.7272 18.3466 24.4364 19.1466 23.9272Z" fill="#F19920"/>
<path d="M14.1255 22.3998C13.6165 21.7453 13.2528 20.9453 13.2528 20.0726C13.2528 19.0544 13.6892 18.1089 14.4164 17.4544C14.271 17.2362 14.1255 17.0907 13.98 16.9453C13.2528 17.5999 12.8164 18.5453 12.8164 19.6363C12.8165 20.7998 13.3255 21.7453 14.1255 22.3998Z" fill="#E78825"/>
<path d="M15.7266 20.0723V21.0905C15.7266 21.5268 16.0175 21.8177 16.4538 21.8177C16.8901 21.8177 17.1811 21.5268 17.1811 21.0905V20.945C16.7448 20.5813 16.2357 20.2905 15.7266 20.0723Z" fill="#E78825"/>
<path d="M19.1451 23.9269C18.9997 23.4178 18.8542 22.9815 18.5633 22.5451C17.9815 22.9815 17.2542 23.2723 16.4542 23.2723C14.4178 23.2723 12.8178 21.6723 12.8178 19.636C12.8178 18.545 13.2542 17.5996 13.9815 16.945C13.6178 16.5814 13.2542 16.2905 12.8178 16.0723C11.9451 17.0177 11.3633 18.2541 11.3633 19.6359C11.3633 22.4723 13.6178 24.7268 16.4542 24.7268C17.4724 24.7269 18.3451 24.436 19.1451 23.9269Z" fill="#F6B545"/>
<path d="M18.9259 23.2734C18.4168 23.6371 17.7622 23.8552 17.1077 24.0007C16.7441 24.0734 16.4531 24.3643 16.4531 24.7279C17.4713 24.7279 18.3441 24.437 19.1441 23.9279C19.0714 23.7097 18.9986 23.4916 18.9259 23.2734Z" fill="#F19920"/>
<path d="M12.8178 16.0723C11.9451 17.0177 11.3633 18.2541 11.3633 19.6359H11.436C11.7997 19.6359 12.0906 19.345 12.1633 18.9813C12.3087 17.9631 12.8178 17.0904 13.4723 16.4359C13.2542 16.3631 13.036 16.2177 12.8178 16.0723Z" fill="#FFCB5B"/>
<path d="M9.90734 26.1819C12.719 26.1819 14.9983 23.9026 14.9983 21.0909C14.9983 18.2793 12.719 16 9.90734 16C7.0957 16 4.81641 18.2793 4.81641 21.0909C4.81641 23.9026 7.0957 26.1819 9.90734 26.1819Z" fill="#F6B545"/>
<path d="M9.17969 24.7277C9.17969 25.2367 9.25244 25.6731 9.39787 26.1822C9.54331 26.1822 9.7615 26.1822 9.90694 26.1822C12.7433 26.1822 14.9979 23.9277 14.9979 21.0913C14.9979 20.5822 14.9251 20.1458 14.7797 19.6367C14.6343 19.6367 14.4161 19.6367 14.2706 19.6367C11.4343 19.6368 9.17969 21.8913 9.17969 24.7277Z" fill="#F19920"/>
<path d="M9.90734 16C7.07097 16 4.81641 18.2546 4.81641 21.0909C4.81641 23.9273 7.07097 26.1819 9.90734 26.1819C12.7437 26.1819 14.9983 23.9272 14.9983 21.0909C14.9983 18.2546 12.7437 16 9.90734 16ZM9.90734 24.7272C7.87097 24.7272 6.27097 23.1273 6.27097 21.0909C6.27097 19.0545 7.87097 17.4545 9.90734 17.4545C11.9437 17.4545 13.5437 19.0545 13.5437 21.0909C13.5437 23.1273 11.9437 24.7272 9.90734 24.7272Z" fill="#FFCB5B"/>
<path d="M9.90625 26.108C12.7426 26.1807 14.9972 23.8535 14.9972 21.0898H14.9244C14.5608 21.0898 14.2699 21.3808 14.1972 21.7444C14.0517 22.7626 13.5426 23.708 12.8154 24.3626C12.2336 24.9444 11.4336 25.308 10.5608 25.4535C10.1972 25.4535 9.90625 25.7443 9.90625 26.108Z" fill="#F6B545"/>
<path d="M9.91125 16.072C7.07488 15.9992 4.82031 18.3265 4.82031 21.0902H4.89306C5.25669 21.0902 5.54763 20.7992 5.62031 20.4356C5.76575 19.4174 6.27487 18.472 7.00212 17.8174C7.58394 17.2356 8.38394 16.872 9.25669 16.7265C9.62037 16.7265 9.91125 16.4356 9.91125 16.072Z" fill="#FFE27A"/>
<path d="M6.78256 21.5986C6.78256 19.5622 8.38256 17.9622 10.4189 17.9622C11.2917 17.9622 12.0917 18.2531 12.7462 18.8349C12.0189 17.9622 11.0734 17.4531 9.90981 17.4531C7.87344 17.4531 6.27344 19.0531 6.27344 21.0895C6.27344 22.2531 6.7825 23.1986 7.5825 23.8531C7.0735 23.2713 6.78256 22.4713 6.78256 21.5986Z" fill="#F19920"/>
<path d="M12.0929 23.3448C12.0201 23.3448 11.9475 23.3448 11.8747 23.272C11.7293 23.1266 11.7293 22.9084 11.8747 22.7629C12.3111 22.3266 12.5293 21.672 12.5293 21.0902C12.5293 20.872 12.6747 20.7266 12.8929 20.7266C13.1111 20.7266 13.2565 20.872 13.2565 21.0902C13.2565 21.8902 12.9656 22.6902 12.4565 23.272C12.311 23.3448 12.1656 23.3448 12.0929 23.3448Z" fill="#FFCB5B"/>
<path d="M9.90694 23.2737C9.47056 23.2737 9.17969 22.9828 9.17969 22.5465V19.6374C9.17969 19.201 9.47063 18.9102 9.90694 18.9102C10.3433 18.9102 10.6342 19.2011 10.6342 19.6374V22.5465C10.6343 22.9828 10.3433 23.2737 9.90694 23.2737Z" fill="#F19920"/>
<path d="M13.2524 19.7095C13.3978 20.1458 13.5433 20.5822 13.5433 21.0913C13.5433 23.1277 11.9433 24.7277 9.90694 24.7277C9.68875 24.7277 9.39787 24.7277 9.17969 24.6549V24.7277C9.17969 25.2367 9.25244 25.6731 9.39787 26.1822C9.54331 26.1822 9.7615 26.1822 9.90694 26.1822C12.7433 26.1822 14.9979 23.9277 14.9979 21.0913C14.9979 20.5822 14.9251 20.1458 14.7797 19.6367C14.6343 19.6367 14.4161 19.6367 14.2706 19.6367C13.9069 19.6368 13.616 19.6368 13.2524 19.7095Z" fill="#F6B545"/>
<path d="M13.5441 30.5452C16.3557 30.5452 18.635 28.2659 18.635 25.4542C18.635 22.6426 16.3557 20.3633 13.5441 20.3633C10.7324 20.3633 8.45312 22.6426 8.45312 25.4542C8.45312 28.2659 10.7324 30.5452 13.5441 30.5452Z" fill="#F6B545"/>
<path d="M13.5441 20.3633C10.7077 20.3633 8.45312 22.6178 8.45312 25.4542C8.45312 28.2906 10.7077 30.5452 13.5441 30.5452C16.3804 30.5452 18.635 28.2906 18.635 25.4542C18.635 22.6178 16.3804 20.3633 13.5441 20.3633ZM13.5441 29.0906C11.5077 29.0906 9.90769 27.4906 9.90769 25.4542C9.90769 23.4178 11.5077 21.8178 13.5441 21.8178C15.5804 21.8178 17.1804 23.4178 17.1804 25.4542C17.1804 27.4906 15.5804 29.0906 13.5441 29.0906Z" fill="#FFCB5B"/>
<path d="M13.5469 30.4713C16.3832 30.5441 18.6378 28.2167 18.6378 25.4531H18.5651C18.2014 25.4531 17.9105 25.7441 17.8378 26.1077C17.6924 27.1259 17.1833 28.0713 16.456 28.7259C15.8742 29.3077 15.0742 29.6713 14.2014 29.8168C13.8378 29.8168 13.5469 30.1076 13.5469 30.4713Z" fill="#F6B545"/>
<path d="M13.5441 20.4353C10.7077 20.3625 8.45312 22.6898 8.45312 25.4534H8.52588C8.8895 25.4534 9.18044 25.1625 9.25312 24.7989C9.39856 23.7807 9.90769 22.8353 10.6349 22.1807C11.2167 21.5989 12.0167 21.2353 12.8895 21.0898C13.2532 21.0898 13.5441 20.7989 13.5441 20.4353Z" fill="#FFE27A"/>
<path d="M10.4154 25.9638C10.4154 23.9274 12.0154 22.3274 14.0517 22.3274C14.9245 22.3274 15.7245 22.6184 16.379 23.2002C15.6517 22.3274 14.7062 21.8184 13.5426 21.8184C11.5062 21.8184 9.90625 23.4184 9.90625 25.4547C9.90625 26.6184 10.4153 27.5638 11.2153 28.2184C10.7062 27.6365 10.4154 26.8365 10.4154 25.9638Z" fill="#F19920"/>
<path d="M15.7257 27.708C15.653 27.708 15.5803 27.708 15.5075 27.6353C15.3621 27.4898 15.3621 27.2717 15.5075 27.1262C15.9439 26.6898 16.1621 26.0353 16.1621 25.4535C16.1621 25.2353 16.3075 25.0898 16.5257 25.0898C16.7439 25.0898 16.8893 25.2353 16.8893 25.4535C16.8893 26.2535 16.5984 27.0535 16.0893 27.6353C15.9439 27.708 15.7985 27.708 15.7257 27.708Z" fill="#FFCB5B"/>
<path d="M13.5476 27.6371C13.1112 27.6371 12.8203 27.3461 12.8203 26.9098V24.0007C12.8203 23.5643 13.1112 23.2734 13.5476 23.2734C13.9839 23.2734 14.2748 23.5644 14.2748 24.0007V26.9097C14.2749 27.3461 13.9839 27.6371 13.5476 27.6371Z" fill="#F19920"/>
</g>
<defs>
<clipPath id="clip0_563_9387">
<rect width="32" height="32" fill="white" transform="translate(0.859375)"/>
</clipPath>
</defs>
</svg>
