<svg width="19" height="19" viewBox="0 0 19 19" fill="none" xmlns="http://www.w3.org/2000/svg">
<path d="M11.5415 4.16683C12.3555 4.32563 13.1035 4.72371 13.6899 5.31011C14.2763 5.89651 14.6744 6.64455 14.8332 7.4585M11.5415 0.833496C13.2326 1.02136 14.8095 1.77864 16.0134 2.981C17.2173 4.18336 17.9765 5.75934 18.1665 7.45016M17.3332 14.1002V16.6002C17.3341 16.8322 17.2866 17.062 17.1936 17.2746C17.1006 17.4873 16.9643 17.6782 16.7933 17.835C16.6222 17.9919 16.4203 18.1114 16.2005 18.1858C15.9806 18.2601 15.7477 18.2877 15.5165 18.2668C12.9522 17.9882 10.489 17.1119 8.32486 15.7085C6.31139 14.429 4.60431 12.722 3.32486 10.7085C1.91651 8.5345 1.04007 6.05932 0.76653 3.4835C0.745705 3.25305 0.773092 3.0208 0.846947 2.80152C0.920801 2.58224 1.03951 2.38074 1.1955 2.20985C1.3515 2.03896 1.54137 1.90242 1.75302 1.80893C1.96468 1.71544 2.19348 1.66705 2.42486 1.66683H4.92486C5.32929 1.66285 5.72136 1.80606 6.028 2.06977C6.33464 2.33349 6.53493 2.6997 6.59153 3.10016C6.69705 3.90022 6.89274 4.68577 7.17486 5.44183C7.28698 5.7401 7.31125 6.06426 7.24479 6.3759C7.17832 6.68753 7.02392 6.97359 6.79986 7.20016L5.74153 8.2585C6.92783 10.3448 8.65524 12.0722 10.7415 13.2585L11.7999 12.2002C12.0264 11.9761 12.3125 11.8217 12.6241 11.7552C12.9358 11.6888 13.2599 11.713 13.5582 11.8252C14.3143 12.1073 15.0998 12.303 15.8999 12.4085C16.3047 12.4656 16.6744 12.6695 16.9386 12.9814C17.2029 13.2933 17.3433 13.6915 17.3332 14.1002Z" stroke="#1A1A1A" stroke-linecap="round" stroke-linejoin="round"/>
</svg>
