<svg width="21" height="21" viewBox="0 0 21 21" fill="none" xmlns="http://www.w3.org/2000/svg">
<path d="M7.88688 6.5013C7.6867 6.5013 7.49101 6.55995 7.32456 6.66984C7.15811 6.77972 7.02839 6.93589 6.95178 7.11862C6.87517 7.30135 6.85513 7.50241 6.89418 7.69639C6.93324 7.89038 7.02963 8.06856 7.17119 8.20841C7.31274 8.34826 7.49308 8.4435 7.68942 8.48209C7.88576 8.52068 8.08927 8.50087 8.27421 8.42518C8.45916 8.3495 8.61723 8.22132 8.72845 8.05688C8.83966 7.89243 8.89903 7.69909 8.89903 7.5013C8.89903 7.23609 8.79239 6.98173 8.60258 6.7942C8.41276 6.60666 8.15532 6.5013 7.88688 6.5013ZM7.88688 6.5013C7.6867 6.5013 7.49101 6.55995 7.32456 6.66984C7.15811 6.77972 7.02839 6.93589 6.95178 7.11862C6.87517 7.30135 6.85513 7.50241 6.89418 7.69639C6.93324 7.89038 7.02963 8.06856 7.17119 8.20841C7.31274 8.34826 7.49308 8.4435 7.68942 8.48209C7.88576 8.52068 8.08927 8.50087 8.27421 8.42518C8.45916 8.3495 8.61723 8.22132 8.72845 8.05688C8.83966 7.89243 8.89903 7.69909 8.89903 7.5013C8.89903 7.23609 8.79239 6.98173 8.60258 6.7942C8.41276 6.60666 8.15532 6.5013 7.88688 6.5013ZM19.4456 7.39631C18.8987 6.90751 18.5649 6.22823 18.5144 5.5013C18.5307 5.03735 18.4501 4.57506 18.2779 4.14316C18.1056 3.71126 17.8452 3.31898 17.513 2.99072C17.1807 2.66246 16.7837 2.40523 16.3465 2.23502C15.9094 2.06481 15.4415 1.98526 14.9719 2.0013C14.2156 1.92537 13.5135 1.57855 12.9982 1.0263C12.6613 0.690813 12.2586 0.426846 11.8148 0.250591C11.371 0.0743348 10.8954 -0.0104943 10.4172 0.0013048C9.92224 -0.0116689 9.42953 0.0722147 8.96747 0.248127C8.50541 0.42404 8.08313 0.688507 7.72494 1.0263C7.25682 1.57909 6.58841 1.92902 5.86259 2.0013C5.393 1.98526 4.92509 2.06481 4.48795 2.23502C4.0508 2.40523 3.65376 2.66246 3.32152 2.99072C2.98927 3.31898 2.72891 3.71126 2.55663 4.14316C2.38435 4.57506 2.30383 5.03735 2.32008 5.5013C2.32008 6.2163 1.75328 6.92631 1.27757 7.39631C0.942522 7.74125 0.682554 8.15035 0.513699 8.59838C0.344844 9.04641 0.270682 9.52387 0.295787 10.0013C0.270682 10.4787 0.344844 10.9562 0.513699 11.4042C0.682554 11.8523 0.942522 12.2614 1.27757 12.6063C1.75328 13.0763 2.32008 13.7863 2.32008 14.5013C2.30383 14.9653 2.38435 15.4276 2.55663 15.8595C2.72891 16.2914 2.98927 16.6836 3.32152 17.0119C3.65376 17.3401 4.0508 17.5974 4.48795 17.7676C4.92509 17.9378 5.393 18.0174 5.86259 18.0013C6.59223 18.08 7.26123 18.4392 7.72494 19.0013C8.08517 19.3346 8.50837 19.5945 8.97034 19.7661C9.43231 19.9377 9.92398 20.0176 10.4172 20.0013C10.8936 20.0164 11.3681 19.9355 11.8118 19.7636C12.2555 19.5916 12.6592 19.3323 12.9982 19.0013C13.5095 18.4398 14.212 18.0838 14.9719 18.0013C15.4415 18.0174 15.9094 17.9378 16.3465 17.7676C16.7837 17.5974 17.1807 17.3401 17.513 17.0119C17.8452 16.6836 18.1056 16.2914 18.2779 15.8595C18.4501 15.4276 18.5307 14.9653 18.5144 14.5013C18.5649 13.7744 18.8987 13.0951 19.4456 12.6063C19.7923 12.2645 20.0674 11.8584 20.2551 11.4114C20.4428 10.9644 20.5394 10.4852 20.5394 10.0013C20.5394 9.51736 20.4428 9.03817 20.2551 8.59117C20.0674 8.14417 19.7923 7.73813 19.4456 7.39631ZM7.88688 5.5013C8.28725 5.5013 8.67862 5.6186 9.01152 5.83837C9.34441 6.05813 9.60387 6.37049 9.75708 6.73594C9.9103 7.10139 9.95038 7.50352 9.87228 7.89149C9.79417 8.27945 9.60137 8.63581 9.31827 8.91552C9.03517 9.19522 8.67447 9.3857 8.2818 9.46288C7.88913 9.54005 7.48211 9.50044 7.11222 9.34906C6.74233 9.19769 6.42618 8.94134 6.20374 8.61244C5.98131 8.28355 5.86259 7.89687 5.86259 7.5013C5.86259 6.97087 6.07586 6.46216 6.45549 6.08709C6.83512 5.71202 7.35 5.5013 7.88688 5.5013ZM7.23405 13.8563C7.187 13.9032 7.13103 13.9404 7.06936 13.9658C7.00769 13.9911 6.94154 14.0042 6.87473 14.0042C6.80793 14.0042 6.74178 13.9911 6.68011 13.9658C6.61844 13.9404 6.56247 13.9032 6.51542 13.8563C6.46799 13.8098 6.43034 13.7545 6.40465 13.6936C6.37895 13.6327 6.36573 13.5673 6.36573 13.5013C6.36573 13.4353 6.37895 13.3699 6.40465 13.309C6.43034 13.2481 6.46799 13.1928 6.51542 13.1463L13.6004 6.14631C13.6957 6.05215 13.825 5.99926 13.9598 5.99926C14.0945 5.99926 14.2238 6.05215 14.3191 6.14631C14.4144 6.24046 14.4679 6.36815 14.4679 6.5013C14.4679 6.63446 14.4144 6.76215 14.3191 6.8563L7.23405 13.8563ZM12.9476 14.5013C12.5472 14.5013 12.1559 14.384 11.823 14.1642C11.4901 13.9445 11.2306 13.6321 11.0774 13.2667C10.9242 12.9012 10.8841 12.4991 10.9622 12.1111C11.0403 11.7232 11.2331 11.3668 11.5162 11.0871C11.7993 10.8074 12.16 10.6169 12.5527 10.5397C12.9454 10.4626 13.3524 10.5022 13.7223 10.6535C14.0922 10.8049 14.4083 11.0613 14.6307 11.3902C14.8532 11.7191 14.9719 12.1057 14.9719 12.5013C14.9719 13.0317 14.7586 13.5404 14.379 13.9155C13.9994 14.2906 13.4845 14.5013 12.9476 14.5013ZM12.9476 11.5013C12.7474 11.5013 12.5517 11.56 12.3853 11.6698C12.2188 11.7797 12.0891 11.9359 12.0125 12.1186C11.9359 12.3013 11.9159 12.5024 11.9549 12.6964C11.994 12.8904 12.0904 13.0686 12.2319 13.2084C12.3735 13.3483 12.5538 13.4435 12.7501 13.4821C12.9465 13.5207 13.15 13.5009 13.3349 13.4252C13.5199 13.3495 13.678 13.2213 13.7892 13.0569C13.9004 12.8924 13.9598 12.6991 13.9598 12.5013C13.9598 12.2361 13.8531 11.9817 13.6633 11.7942C13.4735 11.6067 13.216 11.5013 12.9476 11.5013ZM7.88688 8.5013C8.08706 8.5013 8.28275 8.44266 8.4492 8.33277C8.61565 8.22289 8.74537 8.06671 8.82198 7.88399C8.89859 7.70126 8.91863 7.5002 8.87958 7.30621C8.84052 7.11223 8.74413 6.93405 8.60258 6.7942C8.46102 6.65435 8.28068 6.5591 8.08434 6.52052C7.888 6.48193 7.68449 6.50174 7.49955 6.57743C7.3146 6.65311 7.15653 6.78128 7.04531 6.94573C6.9341 7.11018 6.87473 7.30352 6.87473 7.5013C6.87473 7.76652 6.98137 8.02087 7.17119 8.20841C7.361 8.39595 7.61844 8.5013 7.88688 8.5013Z" fill="#F3AF01"/>
</svg>
