<svg width="24" height="24" viewBox="0 0 24 24" fill="none" xmlns="http://www.w3.org/2000/svg">
<g clip-path="url(#clip0_511_15647)">
<path fill-rule="evenodd" clip-rule="evenodd" d="M16.8416 6.54794C15.6026 5.36623 13.9491 4.72247 12.2383 4.74893C9.10766 4.74893 6.44884 6.86098 5.50082 9.70498V9.70505C4.99816 11.1954 4.99816 12.8092 5.50082 14.2996H5.50522C6.45763 17.1392 9.11205 19.2512 12.2427 19.2512C13.8587 19.2512 15.2461 18.8379 16.3213 18.1078V18.1048C17.5868 17.2671 18.451 15.9487 18.72 14.4583H12.2383V9.83734H23.5571C23.6982 10.6398 23.7643 11.46 23.7643 12.2757C23.7643 15.9255 22.4599 19.0113 20.1903 21.1013L20.1927 21.1032C18.2041 22.9374 15.4747 24.0001 12.2383 24.0001C7.70107 24.0001 3.55188 21.4427 1.51477 17.3905V17.3905C-0.187219 13.9997 -0.187215 10.0049 1.51478 6.61411H1.51481L1.51477 6.61408C3.55188 2.55749 7.70107 7.62441e-05 12.2383 7.62441e-05C15.219 -0.0351984 18.0983 1.08477 20.2677 3.12188L16.8416 6.54794Z" fill="#E40000"/>
</g>
<defs>
<clipPath id="clip0_511_15647">
<rect width="24" height="24" fill="white"/>
</clipPath>
</defs>
</svg>
