<svg width="80" height="80" viewBox="0 0 80 80" fill="none" xmlns="http://www.w3.org/2000/svg">
<path d="M71.3729 34.9608C70.2725 34.073 69.0221 33.0726 68.8094 32.2848C68.4793 29.5515 72.0825 25.1976 70.3223 22.494C68.8673 19.6046 63.3068 20.5245 61.0817 18.9179C59.4675 16.6986 60.3987 11.1305 57.5054 9.67711C54.8023 7.92067 50.4493 11.512 47.7147 11.1902C46.9269 10.9775 45.9266 9.72702 45.0388 8.62664C41.5706 3.83413 38.4495 3.79365 34.9602 8.62686C32.6182 11.7133 32.0536 11.7227 28.5204 10.3021C23.1843 7.91441 20.5946 9.46166 19.9927 15.2791C19.9271 16.56 19.5585 17.807 18.9172 18.9178C16.7069 20.5319 11.1263 19.601 9.67661 22.4941C7.92017 25.1972 11.5114 29.5503 11.1897 32.2848C10.0346 34.7677 4.79572 36.7465 4.98756 40.0001C4.79981 43.2508 10.0248 45.2361 11.1897 47.715C11.5197 50.4486 7.91643 54.8023 9.67668 57.5061C11.1317 60.3954 16.6921 59.4755 18.9173 61.0822C19.5604 62.1922 19.929 63.4398 19.9925 64.7211C20.5959 70.4958 23.1448 72.0995 28.5206 69.6976C32.0741 68.2602 32.6259 68.3105 34.9601 71.3735C38.4285 76.1658 41.5495 76.2064 45.0388 71.3732C47.3807 68.2868 47.9453 68.2773 51.4785 69.698C56.8162 72.0751 59.4052 70.5412 60.0063 64.7209C60.0718 63.4401 60.4404 62.193 61.0818 61.0823C63.292 59.4681 68.8726 60.3991 70.3223 57.506C72.0788 54.8028 68.4876 50.4497 68.8093 47.7152C69.0221 46.9274 70.2725 45.9271 71.3729 45.0393C76.1654 41.5711 76.2058 38.4499 71.3729 34.9608ZM39.9995 61.2574C34.3641 61.2494 28.9619 59.0072 24.9771 55.0224C20.9923 51.0376 18.7501 45.6354 18.7421 40C19.9307 11.795 60.0725 11.8032 61.257 40.0002C61.2489 45.6355 59.0067 51.0378 55.0219 55.0225C51.0371 59.0073 45.6348 61.2494 39.9995 61.2574Z" fill="#6CBFC5"/>
<path d="M40.0006 21.2435C35.028 21.2496 30.2607 23.2276 26.7445 26.7439C23.2283 30.2601 21.2502 35.0274 21.2441 40C22.2763 64.8828 57.7287 64.8755 58.7572 39.9999C58.7511 35.0272 56.773 30.26 53.2568 26.7438C49.7406 23.2276 44.9733 21.2496 40.0006 21.2435ZM50.892 34.2105L37.5498 47.5526C37.4337 47.6695 37.2953 47.7619 37.1428 47.8242C36.9902 47.8865 36.8267 47.9174 36.662 47.9152C36.4991 47.9173 36.3375 47.8863 36.1871 47.824C36.0366 47.7616 35.9003 47.6693 35.7867 47.5526L29.1094 40.8878C28.8818 40.6507 28.7562 40.3339 28.7596 40.0052C28.7629 39.6766 28.895 39.3624 29.1274 39.13C29.3598 38.8977 29.674 38.7656 30.0026 38.7623C30.3313 38.759 30.6481 38.8846 30.8851 39.1123L36.6621 44.9017L49.1163 32.4474C49.3518 32.2201 49.667 32.0941 49.9943 32.0964C50.3216 32.0988 50.6349 32.2292 50.8671 32.4598C51.0994 32.6904 51.232 33.0029 51.2367 33.3301C51.2413 33.6574 51.1176 33.9734 50.892 34.2105Z" fill="#6CBFC5"/>
</svg>
