<svg width="20" height="20" viewBox="0 0 20 20" fill="none" xmlns="http://www.w3.org/2000/svg">
<path d="M12.4809 7.18338L12.7754 7.20677L17.5259 7.58425C17.591 7.58946 17.6531 7.6136 17.7046 7.65371L18.0118 7.25923L17.7046 7.65371C17.756 7.69377 17.7946 7.74801 17.8156 7.80974C17.8582 7.93661 17.8218 8.07577 17.7227 8.16529C17.7226 8.16535 17.7226 8.16541 17.7225 8.16547L13.943 11.5667L13.7109 11.7755L13.7967 12.0757L15.3205 17.4076C15.3205 17.4078 15.3206 17.408 15.3206 17.4082C15.339 17.4737 15.3369 17.5433 15.3147 17.6076C15.2924 17.6721 15.2509 17.7282 15.1958 17.7684C15.1406 17.8086 15.0744 17.831 15.0062 17.8325C14.9381 17.834 14.8712 17.8146 14.8144 17.777C14.8143 17.777 14.8142 17.7769 14.814 17.7768L10.2773 14.7523L9.99998 14.5674L9.72263 14.7523L5.18513 17.7773L5.18458 17.7777C5.12903 17.8148 5.0636 17.8344 4.99678 17.8339C4.92996 17.8334 4.86483 17.8128 4.80985 17.7748C4.75487 17.7369 4.71258 17.6832 4.68845 17.6209C4.66433 17.5586 4.6595 17.4905 4.67458 17.4254L4.67466 17.425L5.91633 12.0484L5.97963 11.7742L5.77817 11.5778L2.26734 8.15532L2.2673 8.15528C2.22143 8.11058 2.18942 8.05361 2.17508 7.99119C2.16075 7.92876 2.1647 7.86353 2.18647 7.80329C2.20823 7.74306 2.24689 7.69037 2.29782 7.65153L1.99545 7.25505L2.29782 7.65153C2.34875 7.61269 2.40979 7.58934 2.47363 7.58428L2.47375 7.58427L7.22459 7.20677L7.51906 7.18338L7.64066 6.91416L9.69649 2.36249L9.69711 2.3611C9.72329 2.30268 9.76581 2.25308 9.81955 2.21829L9.54784 1.79856L9.81956 2.21829C9.87329 2.1835 9.93596 2.165 9.99998 2.16504C10.064 2.16507 10.1266 2.18364 10.1803 2.21849C10.234 2.25334 10.2765 2.30298 10.3026 2.36144L10.3035 2.36336L12.3593 6.91419L12.4809 7.18338Z" stroke="#FFC83C"/>
</svg>
