<svg width="100" height="100" viewBox="0 0 100 100" fill="none" xmlns="http://www.w3.org/2000/svg">
<path d="M94.6821 58.2829L94.653 58.2973C91.2253 60.926 89.773 65.3993 90.9931 69.5387L91.0075 69.5678C92.9536 76.1471 88.1319 82.7842 81.2765 82.9586H81.2476C76.9194 83.0749 73.1142 85.8342 71.6763 89.9155V89.9299C69.3813 96.4075 61.5679 98.9491 55.9181 95.042C52.4099 92.6465 47.7722 92.5215 44.0812 95.042H44.0667C38.4171 98.9344 30.6032 96.4073 28.323 89.9153C26.8722 85.8239 23.0726 83.0745 18.7519 82.9585H18.7228C11.8677 82.784 7.04561 76.1469 8.99189 69.5676L9.00635 69.5385C10.2261 65.3991 8.77373 60.9258 5.34639 58.2971L5.31729 58.2827C-0.129199 54.0997 -0.129199 45.9084 5.31729 41.7256L5.34639 41.7112C8.77373 39.0825 10.2261 34.609 8.99189 30.4698V30.4407C7.03096 23.8616 11.8675 17.2241 18.7228 17.0498H18.7519C23.0653 16.9336 26.8851 14.1741 28.323 10.093V10.0786C30.603 3.60102 38.4171 1.05942 44.0667 4.96645H44.0812C47.6394 7.42094 52.345 7.42094 55.9181 4.96645C61.6247 1.02563 69.3948 3.63989 71.6763 10.0786V10.093C73.1142 14.1596 76.9192 16.9338 81.2476 17.0498H81.2765C88.1317 17.2241 92.9536 23.8616 91.0075 30.4407L90.9931 30.4698C89.773 34.609 91.2253 39.0825 94.653 41.7112L94.6821 41.7256C100.129 45.9084 100.129 54.0998 94.6821 58.2829Z" fill="#FCD02F"/>
<path d="M49.9994 77.0535C64.941 77.0535 77.0535 64.941 77.0535 49.9994C77.0535 35.0578 64.941 22.9453 49.9994 22.9453C35.0578 22.9453 22.9453 35.0578 22.9453 49.9994C22.9453 64.941 35.0578 77.0535 49.9994 77.0535Z" fill="#0050B3"/>
<path opacity="0.1" d="M70.7721 32.682C66.0926 28.8324 60.1057 26.5186 53.5791 26.5186C38.6377 26.5186 26.5186 38.6377 26.5186 53.5791C26.5186 60.1057 28.8324 66.0926 32.6818 70.7721C26.7363 65.8125 22.9492 58.3521 22.9492 49.9994C22.9492 35.0578 35.058 22.9492 49.9994 22.9492C58.3521 22.9492 65.8125 26.7363 70.7721 32.682Z" fill="black"/>
<path d="M43.5638 60.5918L37.5812 54.2269C36.0144 52.5597 36.0953 49.9385 37.7619 48.3717C39.4285 46.8029 42.0509 46.8871 43.6164 48.5531L46.4722 51.5902L58.6115 37.7156C60.1162 35.9937 62.7334 35.8191 64.4566 37.326C66.1785 38.8328 66.3523 41.4492 64.8462 43.1711L49.6988 60.4826C48.0851 62.325 45.2373 62.3732 43.5638 60.5918Z" fill="white"/>
</svg>
