<svg width="16" height="16" viewBox="0 0 16 16" fill="none" xmlns="http://www.w3.org/2000/svg">
<g clip-path="url(#clip0_745_3145)">
<path d="M10.0336 3.33317C10.6848 3.46021 11.2832 3.77868 11.7523 4.24779C12.2214 4.71691 12.5399 5.31535 12.6669 5.9665M10.0336 0.666504C11.3865 0.816795 12.648 1.42262 13.6111 2.38451C14.5742 3.3464 15.1816 4.60718 15.3336 5.95984M14.6669 11.2798V13.2798C14.6677 13.4655 14.6297 13.6493 14.5553 13.8194C14.4809 13.9895 14.3718 14.1422 14.235 14.2677C14.0982 14.3933 13.9367 14.4888 13.7608 14.5483C13.5849 14.6078 13.3985 14.6299 13.2136 14.6132C11.1622 14.3903 9.19161 13.6893 7.46028 12.5665C5.8495 11.5429 4.48384 10.1773 3.46028 8.5665C2.3336 6.82731 1.63244 4.84717 1.41361 2.7865C1.39695 2.60215 1.41886 2.41634 1.47795 2.24092C1.53703 2.0655 1.63199 1.9043 1.75679 1.76758C1.88159 1.63087 2.03348 1.52164 2.20281 1.44685C2.37213 1.37206 2.55517 1.33334 2.74028 1.33317H4.74028C5.06382 1.32999 5.37748 1.44456 5.62279 1.65553C5.8681 1.8665 6.02833 2.15947 6.07361 2.47984C6.15803 3.11988 6.31458 3.74832 6.54028 4.35317C6.62998 4.59179 6.64939 4.85111 6.59622 5.10042C6.54305 5.34973 6.41952 5.57858 6.24028 5.75984L5.39361 6.6065C6.34265 8.27553 7.72458 9.65747 9.39361 10.6065L10.2403 9.75984C10.4215 9.58059 10.6504 9.45707 10.8997 9.4039C11.149 9.35073 11.4083 9.37014 11.6469 9.45984C12.2518 9.68554 12.8802 9.84209 13.5203 9.9265C13.8441 9.97219 14.1399 10.1353 14.3513 10.3848C14.5627 10.6344 14.6751 10.9529 14.6669 11.2798Z" stroke="#1A1A1A" stroke-linecap="round" stroke-linejoin="round"/>
</g>
<defs>
<clipPath id="clip0_745_3145">
<rect width="16" height="16" fill="white"/>
</clipPath>
</defs>
</svg>
