<svg width="18" height="18" viewBox="0 0 18 18" fill="none" xmlns="http://www.w3.org/2000/svg">
<path d="M6.40195 9.33066C4.9746 9.33066 3.82148 10.4838 3.84257 11.8971C3.85663 12.8041 4.35585 13.5916 5.09062 14.0311C4.84101 13.6479 4.69335 13.1943 4.68632 12.7057C4.66523 11.2924 5.81835 10.1393 7.2457 10.1393C7.52695 10.1393 7.79765 10.185 8.05077 10.2658V7.43574C7.7871 7.39707 7.5164 7.37598 7.2457 7.37598C7.23163 7.37598 7.22109 7.37598 7.20702 7.37598V9.45723C6.9539 9.37637 6.6832 9.33066 6.40195 9.33066Z" fill="#F00044"/>
<path d="M12.5719 0.84375H12.5508H11.8196C12.0305 1.90195 12.6247 2.82305 13.4543 3.44883C12.9094 2.72812 12.579 1.82812 12.5719 0.84375Z" fill="#F00044"/>
<path d="M16.875 5.15059C16.5972 5.15059 16.33 5.12246 16.0664 5.07324V7.10176C15.1101 7.10176 14.182 6.91543 13.3101 6.54277C12.7476 6.30371 12.2238 5.99785 11.7421 5.62871L11.7562 11.883C11.7492 13.2893 11.1937 14.6076 10.1882 15.6025C9.36909 16.4111 8.33198 16.9279 7.20698 17.0932C6.94331 17.1318 6.67261 17.1529 6.4019 17.1529C5.19956 17.1529 4.05347 16.7627 3.12183 16.042C3.22729 16.1686 3.33979 16.2916 3.46284 16.4111C4.47534 17.4096 5.81831 17.9615 7.24917 17.9615C7.51987 17.9615 7.79058 17.9404 8.05425 17.9018C9.17925 17.7365 10.2164 17.2197 11.0355 16.4111C12.041 15.4162 12.5964 14.0979 12.6035 12.6916L12.5507 6.4373C13.0289 6.80645 13.5527 7.11582 14.1187 7.35137C14.9941 7.72051 15.9222 7.91035 16.875 7.91035" fill="#F00044"/>
<path d="M3.45231 8.9334C4.45426 7.93848 5.78669 7.38652 7.207 7.37598V6.62715C6.94333 6.58848 6.67262 6.56738 6.40192 6.56738C4.96755 6.56738 3.62106 7.11934 2.60856 8.1248C1.61364 9.1127 1.04411 10.4627 1.04762 11.8654C1.04762 13.2787 1.60661 14.6041 2.61559 15.6061C2.77731 15.7643 2.94255 15.9119 3.11833 16.0455C2.3238 15.0998 1.89137 13.9186 1.88786 12.674C1.89137 11.2713 2.45739 9.92129 3.45231 8.9334Z" fill="#08FFF9"/>
<path d="M16.0664 5.07344V4.32109H16.0593C15.082 4.32109 14.182 3.99766 13.4578 3.44922C14.0871 4.27891 15.0082 4.86953 16.0664 5.07344Z" fill="#08FFF9"/>
<path d="M7.10151 15.1945C7.4355 15.2121 7.75542 15.1664 8.05073 15.0715C9.07026 14.7375 9.80503 13.7883 9.80503 12.6703L9.80854 8.48672V0.84375H11.8195C11.7667 0.580078 11.7386 0.312891 11.7351 0.0351562H8.96479V7.67461L8.96128 11.8582C8.96128 12.9762 8.22651 13.9254 7.20698 14.2594C6.91167 14.3578 6.59175 14.4035 6.25776 14.3824C5.83237 14.3578 5.43511 14.2312 5.09058 14.0273C5.523 14.6953 6.26128 15.1488 7.10151 15.1945Z" fill="#08FFF9"/>
<path d="M7.207 17.093C8.332 16.9277 9.36911 16.4109 10.1882 15.6023C11.1937 14.6074 11.7492 13.2891 11.7562 11.8828L11.7422 5.62852C12.2203 5.99766 12.7441 6.30703 13.3101 6.54258C14.1855 6.91172 15.1136 7.10156 16.0664 7.10156V5.07305C15.0082 4.86914 14.0871 4.27852 13.4578 3.44883C12.6281 2.82305 12.0304 1.90195 11.823 0.84375H9.80856V8.4832L9.80505 12.6668C9.80505 13.7848 9.07028 14.734 8.05075 15.068C7.75544 15.1664 7.43551 15.2121 7.10153 15.191C6.25778 15.1453 5.52301 14.6918 5.09059 14.0273C4.35583 13.5914 3.85661 12.8004 3.84255 11.8934C3.82145 10.4801 4.97458 9.32695 6.40192 9.32695C6.68317 9.32695 6.95387 9.37265 7.207 9.45351V7.37226C5.78669 7.38281 4.45426 7.93476 3.45231 8.92969C2.45739 9.91758 1.88786 11.2676 1.89137 12.6668C1.89137 13.9113 2.3238 15.0926 3.12184 16.0383C4.057 16.759 5.19958 17.1492 6.40192 17.1492C6.67262 17.1527 6.94333 17.1316 7.207 17.093Z" fill="black"/>
</svg>
