<svg width="24" height="24" viewBox="0 0 24 24" fill="none" xmlns="http://www.w3.org/2000/svg">
<g clip-path="url(#clip0_511_14718)">
<path d="M23.6183 4.32229C23.085 4.55875 22.5315 4.74529 21.9635 4.88034C22.5894 4.2856 23.0599 3.54171 23.3254 2.71139C23.4012 2.47434 23.1437 2.26937 22.9297 2.39629C22.1395 2.86499 21.2884 3.2166 20.3998 3.44147C20.3483 3.45452 20.2951 3.46113 20.2417 3.46113C20.0799 3.46113 19.9225 3.40104 19.7988 3.29197C18.8534 2.45878 17.6375 1.99991 16.3752 1.99991C15.829 1.99991 15.2775 2.08505 14.736 2.25298C13.0582 2.77335 11.7637 4.15728 11.3576 5.86473C11.2052 6.50517 11.164 7.1462 11.2349 7.76996C11.243 7.84164 11.2091 7.89167 11.1882 7.91514C11.1515 7.95627 11.0995 7.97985 11.0455 7.97985C11.0395 7.97985 11.0333 7.97956 11.0271 7.97897C7.35466 7.63778 4.04298 5.86848 1.70211 2.99705C1.58274 2.85059 1.35383 2.86856 1.25868 3.03175C0.800282 3.81819 0.558032 4.71767 0.558032 5.63295C0.558032 7.03566 1.12158 8.35756 2.10047 9.32124C1.68882 9.22364 1.2904 9.06992 0.920295 8.86436C0.741241 8.76488 0.520934 8.89274 0.518418 9.09754C0.492788 11.1814 1.71281 13.0356 3.54046 13.8705C3.50365 13.8714 3.46684 13.8718 3.42998 13.8718C3.14028 13.8718 2.84694 13.8438 2.55823 13.7886C2.35659 13.7501 2.18719 13.9414 2.2498 14.1369C2.84302 15.989 4.43766 17.3541 6.34593 17.6641C4.76218 18.7272 2.91786 19.288 0.998295 19.288L0.399867 19.2877C0.215488 19.2877 0.0595472 19.4078 0.0125601 19.5864C-0.0337248 19.7623 0.0515308 19.9479 0.208759 20.0393C2.3718 21.2982 4.83907 21.9635 7.34489 21.9635C9.53831 21.9635 11.5901 21.5282 13.4432 20.6698C15.1421 19.8828 16.6433 18.7579 17.9052 17.3262C19.0808 15.9925 20 14.453 20.6374 12.7503C21.2449 11.1273 21.5661 9.39549 21.5661 7.74211V7.66335C21.566 7.39787 21.6861 7.14807 21.8956 6.97803C22.6905 6.33261 23.3827 5.57286 23.9529 4.71989C24.1035 4.49467 23.866 4.2124 23.6183 4.32229Z" fill="#76A9EA"/>
</g>
<defs>
<clipPath id="clip0_511_14718">
<rect width="24" height="24" fill="white"/>
</clipPath>
</defs>
</svg>
