<svg width="130" height="354" viewBox="0 0 130 354" fill="none" xmlns="http://www.w3.org/2000/svg">
<g filter="url(#filter0_d_364_4590)">
<path fill-rule="evenodd" clip-rule="evenodd" d="M-44.8898 210.166C-47.3906 228.577 -44.0325 247.927 -34.0238 265.262C-25.8407 279.436 -14.2684 290.433 -0.921556 297.82C-5.03186 313.369 -3.23757 330.483 5.43927 345.512C22.8698 375.702 61.4744 386.046 91.665 368.616C121.856 351.185 132.2 312.581 114.769 282.39C113.292 279.831 111.662 277.415 109.899 275.147C130.927 248.063 134.721 209.873 116.519 178.346C100.753 151.039 72.4063 135.523 43.0268 134.894C41.6536 130.419 39.758 126.029 37.3182 121.803C33.9328 115.939 29.7487 110.824 24.9826 106.516C34.1735 86.7866 33.9181 63.0369 22.2094 42.7569C3.13618 9.72117 -39.1065 -1.59773 -72.1423 17.4755C-105.178 36.5487 -116.497 78.7914 -97.4237 111.827C-92.2337 120.816 -85.3282 128.198 -77.3594 133.796C-82.7112 150.229 -81.3328 168.78 -72.0116 184.925C-65.4472 196.294 -55.8799 204.849 -44.8898 210.166Z" fill="#F97B55"/>
</g>
<defs>
<filter id="filter0_d_364_4590" x="-113.689" y="0.209961" width="242.867" height="376.873" filterUnits="userSpaceOnUse" color-interpolation-filters="sRGB">
<feFlood flood-opacity="0" result="BackgroundImageFix"/>
<feColorMatrix in="SourceAlpha" type="matrix" values="0 0 0 0 0 0 0 0 0 0 0 0 0 0 0 0 0 0 127 0" result="hardAlpha"/>
<feOffset dx="-3" dy="-4"/>
<feGaussianBlur stdDeviation="2"/>
<feComposite in2="hardAlpha" operator="out"/>
<feColorMatrix type="matrix" values="0 0 0 0 0.101961 0 0 0 0 0.101961 0 0 0 0 0.101961 0 0 0 0.1 0"/>
<feBlend mode="normal" in2="BackgroundImageFix" result="effect1_dropShadow_364_4590"/>
<feBlend mode="normal" in="SourceGraphic" in2="effect1_dropShadow_364_4590" result="shape"/>
</filter>
</defs>
</svg>
