<svg width="48" height="48" viewBox="0 0 48 48" fill="none" xmlns="http://www.w3.org/2000/svg">
<g clip-path="url(#clip0_902_5743)">
<path d="M44.9202 39.9397L38.9693 28.0367C40.9172 25.1638 42.0564 21.7002 42.0564 17.9751C42.0564 8.0636 33.9928 0 24.0814 0C14.1699 0 6.10625 8.0636 6.10625 17.9751C6.10625 21.7002 7.24554 25.1642 9.19378 28.0375L3.24212 39.9397C3.02422 40.3759 3.04766 40.8933 3.30364 41.3079C3.55999 41.7224 4.01263 41.9751 4.50005 41.9751H11.3281L15.4249 47.4375C15.6922 47.7935 16.1097 48 16.5499 48C17.1332 48 17.5928 47.6521 17.8078 47.2225L23.4504 35.9377C23.6598 35.9451 23.87 35.9502 24.0814 35.9502C24.2927 35.9502 24.5029 35.9451 24.7123 35.9377L30.3549 47.2225C30.5691 47.6514 31.0291 48 31.6128 48C32.0527 48 32.4705 47.7935 32.7375 47.4375L36.8346 41.9751H43.6626C44.1501 41.9751 44.6027 41.7224 44.8587 41.3079C45.115 40.8933 45.1385 40.3759 44.9202 39.9397ZM16.31 43.9296L13.1562 39.7251C12.8907 39.371 12.4739 39.1626 12.0312 39.1626H6.77532L11.1391 30.4358C13.6169 33.0081 16.8512 34.8468 20.4808 35.5876L16.31 43.9296ZM8.91875 17.9751C8.91875 9.6145 15.7208 2.8125 24.0814 2.8125C32.4419 2.8125 39.2439 9.6145 39.2439 17.9751C39.2439 26.3357 32.4419 33.1377 24.0814 33.1377C15.7208 33.1377 8.91875 26.3357 8.91875 17.9751ZM36.1312 39.1626C35.6888 39.1626 35.272 39.371 35.0062 39.7251L31.8527 43.9296L27.6816 35.5876C31.3115 34.8464 34.5462 33.0081 37.024 30.4351L41.387 39.1622H36.1312V39.1626Z" fill="#FF0000"/>
<path d="M31.2597 20.3075L35.187 15.62C35.4983 15.2487 35.5964 14.7433 35.4466 14.2826C35.2968 13.8215 34.9204 13.4703 34.4505 13.3528L28.5183 11.8689L25.2733 6.68518C25.0162 6.27429 24.5658 6.0249 24.0813 6.0249C23.5968 6.0249 23.1463 6.27429 22.8893 6.68518L19.645 11.8689L13.7131 13.3528C13.2429 13.4703 12.8664 13.8215 12.7166 14.2822C12.5672 14.7433 12.665 15.2487 12.9763 15.62L16.9035 20.3075L16.4809 26.4075C16.4476 26.8909 16.6651 27.3574 17.057 27.6423C17.6521 28.0748 18.2574 27.8701 18.4094 27.809L24.0813 25.5231L29.7531 27.8093C30.2025 27.9902 30.7133 27.9272 31.1052 27.6427C31.4974 27.3578 31.7149 26.8912 31.6816 26.4078L31.2597 20.3075ZM28.7398 18.9357C28.5062 19.2147 28.3897 19.5729 28.415 19.9358L28.7208 24.3607L24.6071 22.7025C24.1512 22.5187 23.7513 22.6234 23.5558 22.7025L19.4421 24.3607L19.7486 19.9362C19.7735 19.5732 19.6571 19.2147 19.4234 18.9357L16.575 15.5361L20.8777 14.4598C21.2307 14.3716 21.5354 14.15 21.7284 13.8417L24.0816 10.0818L26.4353 13.8417C26.6283 14.15 26.933 14.3716 27.286 14.4598L31.5886 15.5361L28.7398 18.9357Z" fill="#FF0000"/>
</g>
<defs>
<clipPath id="clip0_902_5743">
<rect width="48" height="48" fill="white"/>
</clipPath>
</defs>
</svg>
