<svg width="48" height="48" viewBox="0 0 48 48" fill="none" xmlns="http://www.w3.org/2000/svg">
<path d="M41.5 22.74V20C41.5 15.3587 39.6563 10.9075 36.3744 7.62563C33.0925 4.34374 28.6413 2.5 24 2.5C19.3587 2.5 14.9075 4.34374 11.6256 7.62563C8.34374 10.9075 6.5 15.3587 6.5 20V22.74C5.35339 23.065 4.34338 23.7537 3.62198 24.7023C2.90058 25.6509 2.50683 26.8082 2.5 28V32C2.5 33.4587 3.07946 34.8576 4.11091 35.8891C5.14236 36.9205 6.54131 37.5 8 37.5H10C10.9266 37.4948 11.8138 37.1243 12.4691 36.4691C13.1243 35.8138 13.4948 34.9266 13.5 34V26C13.4948 25.0734 13.1243 24.1862 12.4691 23.5309C11.8138 22.8757 10.9266 22.5053 10 22.5H9.5V20C9.5 16.1544 11.0277 12.4662 13.747 9.74695C16.4662 7.02767 20.1544 5.5 24 5.5C27.8456 5.5 31.5338 7.02767 34.253 9.74695C36.9723 12.4662 38.5 16.1544 38.5 20V22.5H38C37.0734 22.5053 36.1862 22.8757 35.5309 23.5309C34.8757 24.1862 34.5052 25.0734 34.5 26V34C34.5052 34.9266 34.8757 35.8138 35.5309 36.4691C36.1862 37.1243 37.0734 37.4948 38 37.5H38.5V40C38.5 40.663 38.2366 41.2989 37.7678 41.7678C37.2989 42.2366 36.663 42.5 36 42.5H24C23.6022 42.5 23.2206 42.658 22.9393 42.9393C22.658 43.2206 22.5 43.6022 22.5 44C22.5 44.3978 22.658 44.7794 22.9393 45.0607C23.2206 45.342 23.6022 45.5 24 45.5H36C37.4587 45.5 38.8576 44.9205 39.8891 43.8891C40.9205 42.8576 41.5 41.4587 41.5 40V37.26C42.6466 36.935 43.6566 36.2463 44.378 35.2977C45.0994 34.3491 45.4932 33.1918 45.5 32V28C45.4932 26.8082 45.0994 25.6509 44.378 24.7023C43.6566 23.7537 42.6466 23.065 41.5 22.74ZM10.5 26V34C10.5 34.1326 10.4473 34.2598 10.3536 34.3536C10.2598 34.4473 10.1326 34.5 10 34.5H8C7.33696 34.5 6.70107 34.2366 6.23223 33.7678C5.76339 33.2989 5.5 32.663 5.5 32V28C5.5 27.337 5.76339 26.7011 6.23223 26.2322C6.70107 25.7634 7.33696 25.5 8 25.5H10C10.1326 25.5 10.2598 25.5527 10.3536 25.6464C10.4473 25.7402 10.5 25.8674 10.5 26ZM42.5 32C42.5 32.663 42.2366 33.2989 41.7678 33.7678C41.2989 34.2366 40.663 34.5 40 34.5H38C37.8674 34.5 37.7402 34.4473 37.6464 34.3536C37.5527 34.2598 37.5 34.1326 37.5 34V26C37.5 25.8674 37.5527 25.7402 37.6464 25.6464C37.7402 25.5527 37.8674 25.5 38 25.5H40C40.663 25.5 41.2989 25.7634 41.7678 26.2322C42.2366 26.7011 42.5 27.337 42.5 28V32Z" fill="#E40000"/>
</svg>
