<svg width="48" height="48" viewBox="0 0 48 48" fill="none" xmlns="http://www.w3.org/2000/svg">
<path d="M42 20H6M32 4V12M16 4V12M18 32L22 36L31 27M15.6 44H32.4C35.7603 44 37.4405 44 38.7239 43.346C39.8529 42.7708 40.7708 41.8529 41.346 40.7239C42 39.4405 42 37.7603 42 34.4V17.6C42 14.2397 42 12.5595 41.346 11.2761C40.7708 10.1471 39.8529 9.2292 38.7239 8.65396C37.4405 8 35.7603 8 32.4 8H15.6C12.2397 8 10.5595 8 9.27606 8.65396C8.14708 9.2292 7.2292 10.1471 6.65396 11.2761C6 12.5595 6 14.2397 6 17.6V34.4C6 37.7603 6 39.4405 6.65396 40.7239C7.2292 41.8529 8.14708 42.7708 9.27606 43.346C10.5595 44 12.2397 44 15.6 44Z" stroke="#E40000" stroke-width="3" stroke-linecap="round" stroke-linejoin="round"/>
</svg>
