<svg width="24" height="24" viewBox="0 0 24 24" fill="none" xmlns="http://www.w3.org/2000/svg">
<path d="M14.6301 6.25457H5.96124L6.84039 4.94815C6.95765 4.77532 7.02561 4.57382 7.03697 4.36528C7.04833 4.15673 7.00265 3.94904 6.90485 3.7645C6.80705 3.57997 6.66082 3.42557 6.48187 3.31788C6.30292 3.2102 6.09802 3.15331 5.88917 3.15332H5.88677C5.69891 3.15331 5.51345 3.19555 5.34413 3.27693C5.17481 3.3583 5.02597 3.47672 4.90862 3.62342L2.20374 7.00502C2.11863 7.11141 2.07227 7.24359 2.07227 7.37983C2.07227 7.51607 2.11863 7.64826 2.20374 7.75465L4.90892 11.136C5.02626 11.2827 5.1751 11.4012 5.34442 11.4826C5.51374 11.5639 5.6992 11.6062 5.88707 11.6062H5.88917C6.098 11.6062 6.3029 11.5493 6.48183 11.4416C6.66077 11.3339 6.80699 11.1796 6.90479 10.995C7.00259 10.8105 7.04827 10.6028 7.03692 10.3943C7.02557 10.1858 6.95763 9.98427 6.84039 9.81145L5.96102 8.50457H14.6301C15.9684 8.50457 17.2519 9.0362 18.1982 9.98251C19.1445 10.9288 19.6761 12.2123 19.6761 13.5506C19.6761 14.8889 19.1445 16.1723 18.1982 17.1186C17.2519 18.0649 15.9684 18.5966 14.6301 18.5966H12.1765C11.8781 18.5966 11.592 18.7151 11.381 18.9261C11.17 19.1371 11.0515 19.4232 11.0515 19.7216C11.0515 20.0199 11.17 20.3061 11.381 20.5171C11.592 20.728 11.8781 20.8466 12.1765 20.8466H14.6301C16.5651 20.8466 18.4209 20.0779 19.7892 18.7096C21.1574 17.3414 21.9261 15.4856 21.9261 13.5506C21.9261 11.6156 21.1574 9.75978 19.7892 8.39152C18.4209 7.02325 16.5651 6.25457 14.6301 6.25457Z" fill="#FF3C79"/>
</svg>
