<svg width="73" height="73" viewBox="0 0 73 73" fill="none" xmlns="http://www.w3.org/2000/svg">
<path d="M36.5152 0.21582C16.483 0.21582 0.185547 16.5133 0.185547 36.5455C0.185547 56.5777 16.483 72.8752 36.5152 72.8752C56.5474 72.8752 72.8449 56.5777 72.8449 36.5455C72.8449 16.5133 56.5474 0.21582 36.5152 0.21582ZM36.5152 65.6093C20.4902 65.6093 7.45149 52.5705 7.45149 36.5455C7.45149 20.5205 20.4902 7.48176 36.5152 7.48176C52.5403 7.48176 65.579 20.5205 65.579 36.5455C65.579 52.5705 52.5403 65.6093 36.5152 65.6093Z" fill="#FF3C79"/>
<path d="M26.8442 45.8519C26.8442 49.7791 31.164 52.1733 34.4942 50.0919L49.124 40.9483C52.2573 38.99 52.2573 34.4267 49.124 32.4683L34.4942 23.3247C31.164 21.2433 26.8442 23.6375 26.8442 27.5647V45.8519Z" fill="#FF3C79"/>
</svg>
