<svg width="20" height="20" viewBox="0 0 20 20" fill="none" xmlns="http://www.w3.org/2000/svg">
<path d="M17.5 9.375H13.125C11.7537 9.375 10.625 10.5037 10.625 11.875C10.625 13.2463 11.7537 14.375 13.125 14.375H15.625V16.25C15.625 16.5931 15.3431 16.875 15 16.875H5C3.97125 16.875 3.125 16.0288 3.125 15V5.625C3.125 4.59625 3.97125 3.75 5 3.75H6.25C6.59312 3.75 6.875 3.46812 6.875 3.125C6.875 2.78187 6.59312 2.5 6.25 2.5H5C3.28562 2.5 1.875 3.91062 1.875 5.625V15C1.875 16.7144 3.28562 18.125 5 18.125H15C16.0288 18.125 16.875 17.2788 16.875 16.25V14.375H17.5C17.8431 14.375 18.125 14.0931 18.125 13.75V10C18.125 9.65688 17.8431 9.375 17.5 9.375ZM16.875 13.125H13.125C12.4394 13.125 11.875 12.5606 11.875 11.875C11.875 11.1894 12.4394 10.625 13.125 10.625H16.875V13.125Z" fill="white"/>
<path d="M4.77579 5.04387C4.07829 5.34824 4.30892 6.25012 5.00079 6.25012H15.0008C15.3439 6.25012 15.6258 6.53199 15.6258 6.87512V7.50012C15.6258 7.84324 15.9077 8.12512 16.2508 8.12512C16.5939 8.12512 16.8758 7.84324 16.8758 7.50012V6.87512C16.8752 6.37824 16.6777 5.90137 16.3258 5.55012C15.9745 5.19824 15.4977 5.00074 15.0008 5.00012H14.8008L13.707 2.26887C13.5802 1.95324 13.2177 1.79574 12.9008 1.91887L4.77579 5.04387ZM13.4508 5.00012H8.36954L12.7758 3.30637L13.4508 5.00012Z" fill="white"/>
</svg>
